Lora-Bold.ufo
<glyph name="exclam" format="1">
  <advance width="266"/>
  <unicode hex="0021"/>
  <outline>
    <contour>
      <point x="92" y="716"/>
      <point x="72" y="678"/>
      <point x="75" y="643" type="curve" smooth="yes"/>
      <point x="114" y="230" type="line"/>
      <point x="151" y="230" type="line"/>
      <point x="190" y="643" type="line" smooth="yes"/>
      <point x="193" y="678"/>
      <point x="176" y="716"/>
      <point x="133" y="716" type="curve" smooth="yes"/>
    </contour>
    <contour>
      <point x="102" y="113"/>
      <point x="74" y="84"/>
      <point x="74" y="48" type="curve" smooth="yes"/>
      <point x="74" y="12"/>
      <point x="101" y="-16"/>
      <point x="132" y="-16" type="curve" smooth="yes"/>
      <point x="163" y="-16"/>
      <point x="191" y="12"/>
      <point x="191" y="48" type="curve" smooth="yes"/>
      <point x="191" y="84"/>
      <point x="166" y="113"/>
      <point x="133" y="113" type="curve" smooth="yes"/>
    </contour>
  </outline>
</glyph>
<glyph name="numbersign" format="1">
  <advance width="830"/>
  <unicode hex="0023"/>
  <outline>
    <contour>
      <point x="606" y="716" type="line"/>
      <point x="562" y="529" type="line"/>
      <point x="349" y="529" type="line"/>
      <point x="392" y="716" type="line"/>
      <point x="326" y="716" type="line"/>
      <point x="282" y="529" type="line"/>
      <point x="115" y="529" type="line"/>
      <point x="99" y="469" type="line"/>
      <point x="268" y="469" type="line"/>
      <point x="213" y="238" type="line"/>
      <point x="49" y="238" type="line"/>
      <point x="33" y="178" type="line"/>
      <point x="199" y="178" type="line"/>
      <point x="154" y="-16" type="line"/>
      <point x="226" y="-16" type="line"/>
      <point x="270" y="178" type="line"/>
      <point x="479" y="178" type="line"/>
      <point x="434" y="-16" type="line"/>
      <point x="506" y="-16" type="line"/>
      <point x="550" y="178" type="line"/>
      <point x="714" y="178" type="line"/>
      <point x="730" y="238" type="line"/>
      <point x="563" y="238" type="line"/>
      <point x="615" y="469" type="line"/>
      <point x="781" y="469" type="line"/>
      <point x="796" y="528" type="line"/>
      <point x="796" y="529" type="line"/>
      <point x="629" y="529" type="line"/>
      <point x="672" y="716" type="line"/>
    </contour>
    <contour>
      <point x="493" y="238" type="line"/>
      <point x="283" y="238" type="line"/>
      <point x="335" y="469" type="line"/>
      <point x="547" y="469" type="line"/>
    </contour>
  </outline>
</glyph>
<glyph name="period" format="1">
  <advance width="246"/>
  <unicode hex="002E"/>
  <outline>
    <contour>
      <point x="92" y="113"/>
      <point x="64" y="84"/>
      <point x="64" y="48" type="curve" smooth="yes"/>
      <point x="64" y="12"/>
      <point x="91" y="-16"/>
      <point x="122" y="-16" type="curve" smooth="yes"/>
      <point x="153" y="-16"/>
      <point x="181" y="12"/>
      <point x="181" y="48" type="curve" smooth="yes"/>
      <point x="181" y="84"/>
      <point x="156" y="113"/>
      <point x="123" y="113" type="curve" smooth="yes"/>
    </contour>
  </outline>
</glyph>
<glyph name="one" format="1">
  <advance width="364"/>
  <unicode hex="0031"/>
  <outline>
    <contour>
      <point x="213" y="716" type="line"/>
      <point x="18" y="571" type="line"/>
      <point x="38" y="542" type="line"/>
      <point x="158" y="619" type="line"/>
      <point x="160" y="619" type="line"/>
      <point x="161" y="147" type="line" smooth="yes"/>
      <point x="161" y="78"/>
      <point x="143" y="36"/>
      <point x="74" y="33" type="curve"/>
      <point x="74" y="0" type="line"/>
      <point x="329" y="0" type="line"/>
      <point x="329" y="44" type="line"/>
      <point x="245" y="40" type="line"/>
      <point x="248" y="59"/>
      <point x="248" y="83"/>
      <point x="248" y="109" type="curve" smooth="yes"/>
      <point x="247" y="716" type="line"/>
    </contour>
  </outline>
</glyph>
<glyph name="seven" format="1">
  <advance width="461"/>
  <unicode hex="0037"/>
  <outline>
    <contour>
      <point x="22" y="700" type="line"/>
      <point x="22" y="552" type="line"/>
      <point x="46" y="552" type="line"/>
      <point x="46" y="606"/>
      <point x="77" y="629"/>
      <point x="131" y="630" type="curve" smooth="yes"/>
      <point x="395" y="631" type="line"/>
      <point x="329" y="493"/>
      <point x="265" y="326"/>
      <point x="228" y="232" type="curve" smooth="yes"/>
      <point x="202" y="166"/>
      <point x="160" y="71"/>
      <point x="160" y="28" type="curve" smooth="yes"/>
      <point x="160" y="4"/>
      <point x="169" y="-14"/>
      <point x="195" y="-16" type="curve" smooth="yes"/>
      <point x="227" y="-18"/>
      <point x="242" y="13"/>
      <point x="250" y="45" type="curve" smooth="yes"/>
      <point x="308" y="281"/>
      <point x="344" y="433"/>
      <point x="441" y="632" type="curve"/>
      <point x="441" y="700" type="line"/>
    </contour>
  </outline>
</glyph>
<glyph name="question" format="1">
  <advance width="474"/>
  <unicode hex="003F"/>
  <outline>
    <contour>
      <point x="109" y="716"/>
      <point x="33" y="635"/>
      <point x="33" y="577" type="curve" smooth="yes"/>
      <point x="33" y="548"/>
      <point x="47" y="526"/>
      <point x="76" y="524" type="curve" smooth="yes"/>
      <point x="108" y="523"/>
      <point x="122" y="550"/>
      <point x="122" y="567" type="curve" smooth="yes"/>
      <point x="122" y="582"/>
      <point x="117" y="595"/>
      <point x="110" y="606" type="curve"/>
      <point x="115" y="638"/>
      <point x="163" y="677"/>
      <point x="220" y="677" type="curve" smooth="yes"/>
      <point x="314" y="677"/>
      <point x="344" y="617"/>
      <point x="342" y="544" type="curve" smooth="yes"/>
      <point x="337" y="392"/>
      <point x="146" y="345"/>
      <point x="146" y="255" type="curve" smooth="yes"/>
      <point x="146" y="206"/>
      <point x="187" y="188"/>
      <point x="226" y="188" type="curve" smooth="yes"/>
      <point x="250" y="188"/>
      <point x="283" y="194"/>
      <point x="304" y="206" type="curve"/>
      <point x="292" y="241" type="line"/>
      <point x="280" y="236"/>
      <point x="265" y="234"/>
      <point x="255" y="234" type="curve" smooth="yes"/>
      <point x="224" y="234"/>
      <point x="213" y="251"/>
      <point x="213" y="267" type="curve" smooth="yes"/>
      <point x="213" y="334"/>
      <point x="428" y="406"/>
      <point x="437" y="542" type="curve" smooth="yes"/>
      <point x="441" y="625"/>
      <point x="390" y="716"/>
      <point x="235" y="716" type="curve" smooth="yes"/>
    </contour>
    <contour>
      <point x="205" y="102"/>
      <point x="178" y="75"/>
      <point x="178" y="43" type="curve" smooth="yes"/>
      <point x="178" y="6"/>
      <point x="205" y="-16"/>
      <point x="232" y="-16" type="curve" smooth="yes"/>
      <point x="263" y="-16"/>
      <point x="286" y="10"/>
      <point x="286" y="43" type="curve" smooth="yes"/>
      <point x="286" y="75"/>
      <point x="262" y="102"/>
      <point x="232" y="102" type="curve" smooth="yes"/>
    </contour>
  </outline>
</glyph>
<glyph name="C" format="1">
  <advance width="699"/>
  <unicode hex="0043"/>
  <outline>
    <contour>
      <point x="160" y="716"/>
      <point x="46" y="527"/>
      <point x="46" y="339" type="curve" smooth="yes"/>
      <point x="46" y="140"/>
      <point x="185" y="-16"/>
      <point x="386" y="-16" type="curve" smooth="yes"/>
      <point x="468" y="-16"/>
      <point x="583" y="11"/>
      <point x="669" y="130" type="curve"/>
      <point x="643" y="151" type="line"/>
      <point x="589" y="76"/>
      <point x="499" y="36"/>
      <point x="412" y="36" type="curve" smooth="yes"/>
      <point x="264" y="36"/>
      <point x="144" y="165"/>
      <point x="144" y="354" type="curve" smooth="yes"/>
      <point x="144" y="550"/>
      <point x="258" y="675"/>
      <point x="400" y="675" type="curve" smooth="yes"/>
      <point x="516" y="675"/>
      <point x="594" y="602"/>
      <point x="608" y="477" type="curve"/>
      <point x="644" y="477" type="line"/>
      <point x="644" y="709" type="line"/>
      <point x="590" y="709" type="line"/>
      <point x="595" y="655" type="line"/>
      <point x="533" y="696"/>
      <point x="468" y="716"/>
      <point x="393" y="716" type="curve" smooth="yes"/>
    </contour>
    <contour>
      <point x="389" y="700" type="move" name="top"/>
    </contour>
    <contour>
      <point x="415" y="0" type="move" name="bottom"/>
    </contour>
  </outline>
</glyph>
<glyph name="F" format="1">
  <advance width="548"/>
  <unicode hex="0046"/>
  <outline>
    <contour>
      <point x="55" y="700" type="line"/>
      <point x="55" y="656" type="line"/>
      <point x="127" y="660" type="line"/>
      <point x="125" y="640"/>
      <point x="124" y="615"/>
      <point x="124" y="588" type="curve" smooth="yes"/>
      <point x="124" y="156" type="line" smooth="yes"/>
      <point x="124" y="85"/>
      <point x="130" y="36"/>
      <point x="55" y="33" type="curve"/>
      <point x="55" y="0" type="line"/>
      <point x="310" y="0" type="line"/>
      <point x="310" y="44" type="line"/>
      <point x="208" y="40" type="line"/>
      <point x="210" y="57"/>
      <point x="211" y="83"/>
      <point x="211" y="119" type="curve" smooth="yes"/>
      <point x="211" y="329" type="line"/>
      <point x="271" y="332" type="line" smooth="yes"/>
      <point x="355" y="336"/>
      <point x="390" y="332"/>
      <point x="390" y="243" type="curve"/>
      <point x="422" y="243" type="line"/>
      <point x="422" y="454" type="line"/>
      <point x="378" y="454" type="line"/>
      <point x="385" y="367" type="line"/>
      <point x="211" y="368" type="line"/>
      <point x="211" y="540" type="line" smooth="yes"/>
      <point x="211" y="609"/>
      <point x="206" y="661"/>
      <point x="280" y="663" type="curve" smooth="yes"/>
      <point x="353" y="665" type="line" smooth="yes"/>
      <point x="428" y="667"/>
      <point x="491" y="643"/>
      <point x="491" y="525" type="curve"/>
      <point x="524" y="525" type="line"/>
      <point x="519" y="700" type="line"/>
    </contour>
  </outline>
</glyph>
<glyph name="H" format="1">
  <advance width="780"/>
  <unicode hex="0048"/>
  <outline>
    <contour>
      <point x="500" y="700" type="line"/>
      <point x="500" y="656" type="line"/>
      <point x="572" y="660" type="line"/>
      <point x="570" y="640"/>
      <point x="569" y="615"/>
      <point x="569" y="588" type="curve" smooth="yes"/>
      <point x="569" y="378" type="line"/>
      <point x="211" y="378" type="line"/>
      <point x="211" y="544" type="line" smooth="yes"/>
      <point x="211" y="615"/>
      <point x="205" y="664"/>
      <point x="280" y="667" type="curve"/>
      <point x="280" y="700" type="line"/>
      <point x="55" y="700" type="line"/>
      <point x="55" y="656" type="line"/>
      <point x="127" y="660" type="line"/>
      <point x="125" y="640"/>
      <point x="124" y="615"/>
      <point x="124" y="588" type="curve" smooth="yes"/>
      <point x="124" y="156" type="line" smooth="yes"/>
      <point x="124" y="85"/>
      <point x="130" y="36"/>
      <point x="55" y="33" type="curve"/>
      <point x="55" y="0" type="line"/>
      <point x="280" y="0" type="line"/>
      <point x="280" y="44" type="line"/>
      <point x="208" y="40" type="line"/>
      <point x="210" y="57"/>
      <point x="211" y="83"/>
      <point x="211" y="119" type="curve" smooth="yes"/>
      <point x="211" y="334" type="line"/>
      <point x="569" y="338" type="line"/>
      <point x="569" y="156" type="line" smooth="yes"/>
      <point x="569" y="85"/>
      <point x="575" y="36"/>
      <point x="500" y="33" type="curve"/>
      <point x="500" y="0" type="line"/>
      <point x="725" y="0" type="line"/>
      <point x="725" y="44" type="line"/>
      <point x="653" y="40" type="line"/>
      <point x="655" y="57"/>
      <point x="656" y="83"/>
      <point x="656" y="119" type="curve" smooth="yes"/>
      <point x="656" y="544" type="line" smooth="yes"/>
      <point x="656" y="615"/>
      <point x="650" y="664"/>
      <point x="725" y="667" type="curve"/>
      <point x="725" y="700" type="line"/>
    </contour>
    <contour>
      <point x="390" y="350" type="move" name="center"/>
    </contour>
    <contour>
      <point x="390" y="700" type="move" name="top"/>
    </contour>
  </outline>
</glyph>
<glyph name="J" format="1">
  <advance width="373"/>
  <unicode hex="004A"/>
  <outline>
    <contour>
      <point x="77" y="700" type="line"/>
      <point x="77" y="656" type="line"/>
      <point x="179" y="660" type="line"/>
      <point x="179" y="139" type="line" smooth="yes"/>
      <point x="179" y="57"/>
      <point x="160" y="26"/>
      <point x="120" y="25" type="curve" smooth="yes"/>
      <point x="110" y="24"/>
      <point x="89" y="28"/>
      <point x="81" y="41" type="curve"/>
      <point x="84" y="47"/>
      <point x="85" y="57"/>
      <point x="85" y="63" type="curve" smooth="yes"/>
      <point x="85" y="83"/>
      <point x="74" y="109"/>
      <point x="41" y="107" type="curve" smooth="yes"/>
      <point x="12" y="106"/>
      <point x="-2" y="81"/>
      <point x="-2" y="55" type="curve" smooth="yes"/>
      <point x="-2" y="11"/>
      <point x="48" y="-16"/>
      <point x="104" y="-16" type="curve" smooth="yes"/>
      <point x="219" y="-16"/>
      <point x="266" y="56"/>
      <point x="266" y="244" type="curve" smooth="yes"/>
      <point x="266" y="568" type="line" smooth="yes"/>
      <point x="266" y="624"/>
      <point x="277" y="667"/>
      <point x="343" y="667" type="curve"/>
      <point x="343" y="700" type="line"/>
    </contour>
    <contour>
      <point x="215" y="700" type="move" name="top"/>
    </contour>
  </outline>
</glyph>
<glyph name="L" format="1">
  <advance width="578"/>
  <unicode hex="004C"/>
  <outline>
    <contour>
      <point x="55" y="700" type="line"/>
      <point x="55" y="656" type="line"/>
      <point x="127" y="660" type="line"/>
      <point x="125" y="640"/>
      <point x="124" y="615"/>
      <point x="124" y="588" type="curve" smooth="yes"/>
      <point x="124" y="156" type="line" smooth="yes"/>
      <point x="124" y="85"/>
      <point x="130" y="36"/>
      <point x="55" y="33" type="curve"/>
      <point x="55" y="0" type="line"/>
      <point x="551" y="0" type="line"/>
      <point x="557" y="207" type="line"/>
      <point x="523" y="207" type="line"/>
      <point x="523" y="89"/>
      <point x="479" y="41"/>
      <point x="395" y="40" type="curve" smooth="yes"/>
      <point x="208" y="37" type="line"/>
      <point x="210" y="54"/>
      <point x="211" y="79"/>
      <point x="211" y="115" type="curve" smooth="yes"/>
      <point x="211" y="544" type="line" smooth="yes"/>
      <point x="211" y="615"/>
      <point x="205" y="664"/>
      <point x="280" y="667" type="curve"/>
      <point x="280" y="700" type="line"/>
    </contour>
    <contour>
      <point x="181" y="700" type="move" name="top"/>
    </contour>
    <contour>
      <point x="319" y="0" type="move" name="bottom"/>
    </contour>
  </outline>
</glyph>
<glyph name="asciicircum" format="1">
  <advance width="823"/>
  <unicode hex="005E"/>
  <outline>
    <contour>
      <point x="368" y="716" type="line"/>
      <point x="60" y="441" type="line"/>
      <point x="142" y="441" type="line"/>
      <point x="409" y="681" type="line"/>
      <point x="675" y="437" type="line"/>
      <point x="763" y="437" type="line"/>
      <point x="457" y="716" type="line"/>
    </contour>
  </outline>
</glyph>
<glyph name="grave" format="1">
  <advance width="252"/>
  <unicode hex="0060"/>
  <outline>
    <contour>
      <point x="50" y="750"/>
      <point x="31" y="724"/>
      <point x="67" y="686" type="curve" smooth="yes"/>
      <point x="179" y="580" type="line"/>
      <point x="207" y="603" type="line"/>
      <point x="123" y="738" type="line" smooth="yes"/>
      <point x="93" y="781"/>
      <point x="63" y="761"/>
      <point x="58" y="757" type="curve" smooth="yes"/>
    </contour>
    <contour>
      <point x="126" y="500" type="move" name="_top"/>
    </contour>
  </outline>
</glyph>
<glyph name="a" format="1">
  <advance width="516"/>
  <unicode hex="0061"/>
  <outline>
    <contour>
      <point x="147" y="516"/>
      <point x="64" y="463"/>
      <point x="64" y="396" type="curve" smooth="yes"/>
      <point x="64" y="369"/>
      <point x="79" y="347"/>
      <point x="107" y="347" type="curve" smooth="yes"/>
      <point x="140" y="346"/>
      <point x="152" y="373"/>
      <point x="152" y="389" type="curve" smooth="yes"/>
      <point x="152" y="401"/>
      <point x="149" y="416"/>
      <point x="139" y="427" type="curve"/>
      <point x="158" y="465"/>
      <point x="204" y="480"/>
      <point x="243" y="479" type="curve" smooth="yes"/>
      <point x="330" y="477"/>
      <point x="339" y="410"/>
      <point x="339" y="341" type="curve" smooth="yes"/>
      <point x="339" y="279" type="line"/>
      <point x="206" y="281"/>
      <point x="34" y="226"/>
      <point x="34" y="103" type="curve" smooth="yes"/>
      <point x="34" y="36"/>
      <point x="83" y="-16"/>
      <point x="184" y="-16" type="curve" smooth="yes"/>
      <point x="243" y="-16"/>
      <point x="296" y="12"/>
      <point x="341" y="57" type="curve"/>
      <point x="343" y="38"/>
      <point x="344" y="23"/>
      <point x="348" y="0" type="curve"/>
      <point x="491" y="0" type="line"/>
      <point x="491" y="42" type="line"/>
      <point x="420" y="38" type="line"/>
      <point x="423" y="65"/>
      <point x="424" y="85"/>
      <point x="424" y="106" type="curve" smooth="yes"/>
      <point x="425" y="331" type="line" smooth="yes"/>
      <point x="426" y="459"/>
      <point x="374" y="516"/>
      <point x="262" y="516" type="curve" smooth="yes"/>
    </contour>
    <contour>
      <point x="339" y="198"/>
      <point x="338" y="157"/>
      <point x="338" y="151" type="curve" smooth="yes"/>
      <point x="338" y="132"/>
      <point x="338" y="115"/>
      <point x="339" y="100" type="curve"/>
      <point x="299" y="63"/>
      <point x="261" y="41"/>
      <point x="207" y="41" type="curve" smooth="yes"/>
      <point x="166" y="41"/>
      <point x="131" y="65"/>
      <point x="129" y="115" type="curve" smooth="yes"/>
      <point x="126" y="209"/>
      <point x="247" y="242"/>
      <point x="339" y="245" type="curve"/>
    </contour>
    <contour>
      <point x="469" y="5" type="move" name="ogonek"/>
    </contour>
    <contour>
      <point x="251" y="500" type="move" name="top"/>
    </contour>
  </outline>
</glyph>
<glyph name="c" format="1">
  <advance width="532"/>
  <unicode hex="0063"/>
  <outline>
    <contour>
      <point x="147" y="516"/>
      <point x="41" y="379"/>
      <point x="41" y="241" type="curve" smooth="yes"/>
      <point x="41" y="79"/>
      <point x="153" y="-16"/>
      <point x="288" y="-16" type="curve" smooth="yes"/>
      <point x="356" y="-16"/>
      <point x="445" y="19"/>
      <point x="498" y="102" type="curve"/>
      <point x="472" y="122" type="line"/>
      <point x="440" y="74"/>
      <point x="377" y="36"/>
      <point x="315" y="36" type="curve" smooth="yes"/>
      <point x="212" y="36"/>
      <point x="143" y="132"/>
      <point x="143" y="266" type="curve" smooth="yes"/>
      <point x="143" y="404"/>
      <point x="213" y="479"/>
      <point x="304" y="479" type="curve" smooth="yes"/>
      <point x="332" y="479"/>
      <point x="392" y="472"/>
      <point x="409" y="425" type="curve"/>
      <point x="397" y="413"/>
      <point x="394" y="398"/>
      <point x="394" y="385" type="curve" smooth="yes"/>
      <point x="394" y="368"/>
      <point x="406" y="339"/>
      <point x="440" y="340" type="curve" smooth="yes"/>
      <point x="470" y="340"/>
      <point x="487" y="364"/>
      <point x="487" y="393" type="curve" smooth="yes"/>
      <point x="487" y="458"/>
      <point x="413" y="516"/>
      <point x="302" y="516" type="curve" smooth="yes"/>
    </contour>
    <contour>
      <point x="292" y="500" type="move" name="top"/>
    </contour>
    <contour>
      <point x="342" y="0" type="move" name="bottom"/>
    </contour>
  </outline>
</glyph>
<glyph name="f" format="1">
  <advance width="338"/>
  <unicode hex="0066"/>
  <outline>
    <contour>
      <point x="155" y="760"/>
      <point x="107" y="669"/>
      <point x="107" y="521" type="curve" smooth="yes"/>
      <point x="107" y="500" type="line"/>
      <point x="25" y="500" type="line"/>
      <point x="25" y="455" type="line"/>
      <point x="107" y="457" type="line"/>
      <point x="108" y="152" type="line" smooth="yes"/>
      <point x="108" y="80"/>
      <point x="110" y="30"/>
      <point x="49" y="30" type="curve"/>
      <point x="49" y="0" type="line"/>
      <point x="253" y="0" type="line"/>
      <point x="253" y="41" type="line"/>
      <point x="190" y="38" type="line"/>
      <point x="194" y="61"/>
      <point x="194" y="79"/>
      <point x="194" y="106" type="curve" smooth="yes"/>
      <point x="193" y="458" type="line"/>
      <point x="328" y="461" type="line"/>
      <point x="328" y="500" type="line"/>
      <point x="193" y="500" type="line"/>
      <point x="193" y="605" type="line" smooth="yes"/>
      <point x="193" y="662"/>
      <point x="210" y="724"/>
      <point x="272" y="724" type="curve" smooth="yes"/>
      <point x="286" y="724"/>
      <point x="305" y="719"/>
      <point x="315" y="707" type="curve"/>
      <point x="311" y="698"/>
      <point x="310" y="690"/>
      <point x="310" y="682" type="curve" smooth="yes"/>
      <point x="310" y="667"/>
      <point x="321" y="640"/>
      <point x="353" y="641" type="curve" smooth="yes"/>
      <point x="379" y="641"/>
      <point x="394" y="661"/>
      <point x="394" y="686" type="curve" smooth="yes"/>
      <point x="394" y="738"/>
      <point x="330" y="760"/>
      <point x="287" y="760" type="curve" smooth="yes"/>
    </contour>
  </outline>
</glyph>
<glyph name="h" format="1">
  <advance width="599"/>
  <unicode hex="0068"/>
  <outline>
    <contour>
      <point x="151" y="755" type="line"/>
      <point x="136" y="741"/>
      <point x="114" y="728"/>
      <point x="26" y="728" type="curve"/>
      <point x="26" y="686" type="line"/>
      <point x="97" y="690" type="line"/>
      <point x="94" y="663"/>
      <point x="94" y="646"/>
      <point x="94" y="625" type="curve" smooth="yes"/>
      <point x="94" y="152" type="line" smooth="yes"/>
      <point x="94" y="80"/>
      <point x="95" y="30"/>
      <point x="34" y="30" type="curve"/>
      <point x="34" y="0" type="line"/>
      <point x="238" y="0" type="line"/>
      <point x="238" y="41" type="line"/>
      <point x="175" y="38" type="line"/>
      <point x="179" y="61"/>
      <point x="180" y="79"/>
      <point x="180" y="106" type="curve" smooth="yes"/>
      <point x="180" y="401" type="line"/>
      <point x="209" y="437"/>
      <point x="261" y="462"/>
      <point x="310" y="463" type="curve" smooth="yes"/>
      <point x="389" y="464"/>
      <point x="424" y="406"/>
      <point x="424" y="292" type="curve" smooth="yes"/>
      <point x="424" y="152" type="line" smooth="yes"/>
      <point x="424" y="80"/>
      <point x="426" y="30"/>
      <point x="365" y="30" type="curve"/>
      <point x="365" y="0" type="line"/>
      <point x="569" y="0" type="line"/>
      <point x="569" y="41" type="line"/>
      <point x="506" y="38" type="line"/>
      <point x="510" y="61"/>
      <point x="510" y="79"/>
      <point x="510" y="106" type="curve" smooth="yes"/>
      <point x="509" y="292" type="line" smooth="yes"/>
      <point x="508" y="445"/>
      <point x="460" y="516"/>
      <point x="344" y="516" type="curve" smooth="yes"/>
      <point x="287" y="516"/>
      <point x="224" y="487"/>
      <point x="180" y="450" type="curve"/>
      <point x="180" y="755" type="line"/>
    </contour>
    <contour>
      <point x="300" y="250" type="move" name="center"/>
    </contour>
    <contour>
      <point x="149" y="703" type="move" name="top"/>
    </contour>
  </outline>
</glyph>
<glyph name="l" format="1">
  <advance width="272"/>
  <unicode hex="006C"/>
  <outline>
    <contour>
      <point x="150" y="755" type="line"/>
      <point x="135" y="741"/>
      <point x="113" y="728"/>
      <point x="25" y="728" type="curve"/>
      <point x="25" y="686" type="line"/>
      <point x="96" y="690" type="line"/>
      <point x="93" y="663"/>
      <point x="93" y="646"/>
      <point x="93" y="625" type="curve" smooth="yes"/>
      <point x="93" y="152" type="line" smooth="yes"/>
      <point x="93" y="80"/>
      <point x="95" y="30"/>
      <point x="34" y="30" type="curve"/>
      <point x="34" y="0" type="line"/>
      <point x="238" y="0" type="line"/>
      <point x="238" y="41" type="line"/>
      <point x="175" y="38" type="line"/>
      <point x="179" y="61"/>
      <point x="180" y="79"/>
      <point x="180" y="106" type="curve" smooth="yes"/>
      <point x="179" y="755" type="line"/>
    </contour>
    <contour>
      <point x="136" y="702" type="move" name="top"/>
    </contour>
    <contour>
      <point x="136" y="0" type="move" name="bottom"/>
    </contour>
    <contour>
      <point x="262" y="500" type="move" name="topright"/>
    </contour>
  </outline>
</glyph>
<glyph name="o" format="1">
  <advance width="585"/>
  <unicode hex="006F"/>
  <outline>
    <contour>
      <point x="150" y="516"/>
      <point x="41" y="396"/>
      <point x="41" y="238" type="curve" smooth="yes"/>
      <point x="41" y="90"/>
      <point x="152" y="-16"/>
      <point x="292" y="-16" type="curve" smooth="yes"/>
      <point x="434" y="-16"/>
      <point x="544" y="107"/>
      <point x="544" y="262" type="curve" smooth="yes"/>
      <point x="544" y="407"/>
      <point x="432" y="516"/>
      <point x="292" y="516" type="curve" smooth="yes"/>
    </contour>
    <contour>
      <point x="399" y="478"/>
      <point x="442" y="353"/>
      <point x="442" y="233" type="curve" smooth="yes"/>
      <point x="442" y="127"/>
      <point x="405" y="24"/>
      <point x="300" y="24" type="curve" smooth="yes"/>
      <point x="194" y="24"/>
      <point x="143" y="143"/>
      <point x="143" y="267" type="curve" smooth="yes"/>
      <point x="143" y="376"/>
      <point x="187" y="478"/>
      <point x="292" y="478" type="curve" smooth="yes"/>
    </contour>
    <contour>
      <point x="292" y="500" type="move" name="top"/>
    </contour>
  </outline>
</glyph>
<glyph name="s" format="1">
  <advance width="463"/>
  <unicode hex="0073"/>
  <outline>
    <contour>
      <point x="88" y="516"/>
      <point x="52" y="427"/>
      <point x="52" y="371" type="curve" smooth="yes"/>
      <point x="52" y="191"/>
      <point x="341" y="230"/>
      <point x="341" y="102" type="curve" smooth="yes"/>
      <point x="341" y="48"/>
      <point x="282" y="23"/>
      <point x="231" y="23" type="curve" smooth="yes"/>
      <point x="154" y="23"/>
      <point x="87" y="82"/>
      <point x="83" y="165" type="curve"/>
      <point x="52" y="165" type="line"/>
      <point x="58" y="-7" type="line"/>
      <point x="100" y="-7" type="line"/>
      <point x="96" y="28" type="line"/>
      <point x="129" y="5"/>
      <point x="182" y="-16"/>
      <point x="249" y="-16" type="curve" smooth="yes"/>
      <point x="334" y="-16"/>
      <point x="422" y="30"/>
      <point x="422" y="131" type="curve" smooth="yes"/>
      <point x="422" y="302"/>
      <point x="130" y="273"/>
      <point x="130" y="403" type="curve" smooth="yes"/>
      <point x="130" y="443"/>
      <point x="166" y="479"/>
      <point x="228" y="479" type="curve" smooth="yes"/>
      <point x="313" y="479"/>
      <point x="351" y="405"/>
      <point x="355" y="336" type="curve"/>
      <point x="387" y="336" type="line"/>
      <point x="387" y="511" type="line"/>
      <point x="345" y="511" type="line"/>
      <point x="347" y="473" type="line"/>
      <point x="306" y="506"/>
      <point x="259" y="516"/>
      <point x="223" y="516" type="curve" smooth="yes"/>
    </contour>
    <contour>
      <point x="229" y="500" type="move" name="top"/>
    </contour>
    <contour>
      <point x="278" y="0" type="move" name="bottom"/>
    </contour>
  </outline>
</glyph>
<glyph name="asciitilde" format="1">
  <advance width="580"/>
  <unicode hex="007E"/>
  <outline>
    <contour>
      <point x="142" y="374"/>
      <point x="110" y="355"/>
      <point x="68" y="321" type="curve"/>
      <point x="68" y="258" type="line"/>
      <point x="104" y="284"/>
      <point x="136" y="306"/>
      <point x="191" y="306" type="curve" smooth="yes"/>
      <point x="271" y="306"/>
      <point x="293" y="231"/>
      <point x="393" y="231" type="curve" smooth="yes"/>
      <point x="446" y="231"/>
      <point x="485" y="253"/>
      <point x="512" y="283" type="curve"/>
      <point x="512" y="346" type="line"/>
      <point x="478" y="315"/>
      <point x="433" y="295"/>
      <point x="385" y="299" type="curve" smooth="yes"/>
      <point x="314" y="305"/>
      <point x="298" y="374"/>
      <point x="195" y="374" type="curve" smooth="yes"/>
    </contour>
  </outline>
</glyph>
<glyph name="yen" format="1">
  <advance width="705"/>
  <unicode hex="00A5"/>
  <outline>
    <contour>
      <point x="474" y="700" type="line"/>
      <point x="474" y="656" type="line"/>
      <point x="553" y="659" type="line"/>
      <point x="534" y="638"/>
      <point x="515" y="602"/>
      <point x="505" y="583" type="curve" smooth="yes"/>
      <point x="462" y="502"/>
      <point x="424" y="431"/>
      <point x="377" y="340" type="curve"/>
      <point x="375" y="340" type="line"/>
      <point x="318" y="420"/>
      <point x="283" y="479"/>
      <point x="233" y="558" type="curve" smooth="yes"/>
      <point x="193" y="622"/>
      <point x="194" y="667"/>
      <point x="286" y="667" type="curve"/>
      <point x="286" y="700" type="line"/>
      <point x="28" y="700" type="line"/>
      <point x="28" y="656" type="line"/>
      <point x="90" y="658" type="line"/>
      <point x="95" y="633"/>
      <point x="110" y="598"/>
      <point x="144" y="545" type="curve" smooth="yes"/>
      <point x="288" y="316" type="line"/>
      <point x="189" y="317" type="line"/>
      <point x="189" y="270" type="line"/>
      <point x="317" y="271" type="line"/>
      <point x="317" y="270" type="line"/>
      <point x="317" y="208" type="line"/>
      <point x="189" y="209" type="line"/>
      <point x="189" y="162" type="line"/>
      <point x="317" y="163" type="line"/>
      <point x="317" y="156" type="line" smooth="yes"/>
      <point x="317" y="88"/>
      <point x="324" y="36"/>
      <point x="249" y="33" type="curve"/>
      <point x="249" y="0" type="line"/>
      <point x="484" y="0" type="line"/>
      <point x="484" y="44" type="line"/>
      <point x="401" y="40" type="line"/>
      <point x="403" y="57"/>
      <point x="404" y="83"/>
      <point x="404" y="119" type="curve" smooth="yes"/>
      <point x="403" y="119"/>
      <point x="403" y="139"/>
      <point x="403" y="163" type="curve"/>
      <point x="534" y="164" type="line"/>
      <point x="534" y="207" type="line"/>
      <point x="403" y="208" type="line"/>
      <point x="404" y="230"/>
      <point x="404" y="252"/>
      <point x="404" y="271" type="curve"/>
      <point x="534" y="272" type="line"/>
      <point x="534" y="315" type="line"/>
      <point x="413" y="315" type="line"/>
      <point x="531" y="538" type="line" smooth="yes"/>
      <point x="577" y="623"/>
      <point x="612" y="663"/>
      <point x="678" y="667" type="curve"/>
      <point x="678" y="700" type="line"/>
    </contour>
  </outline>
</glyph>
<glyph name="dieresis" format="1">
  <advance width="387"/>
  <unicode hex="00A8"/>
  <outline>
    <contour>
      <point x="251" y="730"/>
      <point x="227" y="703"/>
      <point x="227" y="670" type="curve" smooth="yes"/>
      <point x="227" y="637"/>
      <point x="250" y="611"/>
      <point x="277" y="611" type="curve" smooth="yes"/>
      <point x="303" y="611"/>
      <point x="327" y="637"/>
      <point x="327" y="670" type="curve" smooth="yes"/>
      <point x="327" y="703"/>
      <point x="306" y="730"/>
      <point x="277" y="730" type="curve" smooth="yes"/>
    </contour>
    <contour>
      <point x="84" y="730"/>
      <point x="60" y="703"/>
      <point x="60" y="670" type="curve" smooth="yes"/>
      <point x="60" y="637"/>
      <point x="83" y="611"/>
      <point x="110" y="611" type="curve" smooth="yes"/>
      <point x="136" y="611"/>
      <point x="160" y="637"/>
      <point x="160" y="670" type="curve" smooth="yes"/>
      <point x="160" y="703"/>
      <point x="139" y="730"/>
      <point x="110" y="730" type="curve" smooth="yes"/>
    </contour>
    <contour>
      <point x="193" y="500" type="move" name="_top"/>
    </contour>
  </outline>
</glyph>
<glyph name="logicalnot" format="1">
  <advance width="592"/>
  <unicode hex="00AC"/>
  <outline>
    <contour>
      <point x="73" y="282" type="line"/>
      <point x="464" y="284" type="line"/>
      <point x="467" y="157" type="line"/>
      <point x="519" y="157" type="line"/>
      <point x="519" y="342" type="line"/>
      <point x="73" y="344" type="line"/>
    </contour>
  </outline>
</glyph>
<glyph name="plusminus" format="1">
  <advance width="576"/>
  <unicode hex="00B1"/>
  <outline>
    <contour>
      <point x="255" y="516" type="line"/>
      <point x="255" y="359" type="line"/>
      <point x="65" y="360" type="line"/>
      <point x="65" y="300" type="line"/>
      <point x="255" y="300" type="line"/>
      <point x="255" y="135" type="line"/>
      <point x="319" y="135" type="line"/>
      <point x="319" y="301" type="line"/>
      <point x="510" y="302" type="line"/>
      <point x="510" y="358" type="line"/>
      <point x="319" y="359" type="line"/>
      <point x="319" y="516" type="line"/>
    </contour>
    <contour>
      <point x="65" y="55" type="line"/>
      <point x="65" y="3" type="line"/>
      <point x="510" y="3" type="line"/>
      <point x="510" y="59" type="line"/>
    </contour>
  </outline>
</glyph>
<glyph name="Oslash" format="1">
  <advance width="794"/>
  <unicode hex="00D8"/>
  <outline>
    <contour>
      <point x="145" y="-50" type="line"/>
      <point x="193" y="-80" type="line"/>
      <point x="665" y="721" type="line"/>
      <point x="611" y="755" type="line"/>
    </contour>
    <component base="O" xOffset="-1"/>
  </outline>
</glyph>
<glyph name="Thorn" format="1">
  <advance width="596"/>
  <unicode hex="00DE"/>
  <outline>
    <contour>
      <point x="202" y="578" type="line"/>
      <point x="208" y="539" type="line"/>
      <point x="228" y="540"/>
      <point x="246" y="541"/>
      <point x="271" y="541" type="curve" smooth="yes"/>
      <point x="404" y="541"/>
      <point x="473" y="483"/>
      <point x="473" y="377" type="curve" smooth="yes"/>
      <point x="473" y="278"/>
      <point x="410" y="203"/>
      <point x="276" y="200" type="curve" smooth="yes"/>
      <point x="251" y="199"/>
      <point x="234" y="199"/>
      <point x="208" y="203" type="curve"/>
      <point x="201" y="162" type="line"/>
      <point x="214" y="161"/>
      <point x="230" y="161"/>
      <point x="237" y="161" type="curve" smooth="yes"/>
      <point x="511" y="161"/>
      <point x="577" y="288"/>
      <point x="570" y="392" type="curve" smooth="yes"/>
      <point x="562" y="520"/>
      <point x="458" y="579"/>
      <point x="265" y="579" type="curve" smooth="yes"/>
    </contour>
    <component base="I"/>
  </outline>
</glyph>
<glyph name="ae" format="1">
  <advance width="777"/>
  <unicode hex="00E6"/>
  <outline>
    <contour>
      <point x="482" y="516"/>
      <point x="427" y="480"/>
      <point x="390" y="430" type="curve"/>
      <point x="366" y="483"/>
      <point x="319" y="516"/>
      <point x="252" y="516" type="curve" smooth="yes"/>
      <point x="137" y="516"/>
      <point x="66" y="453"/>
      <point x="66" y="393" type="curve" smooth="yes"/>
      <point x="66" y="363"/>
      <point x="83" y="345"/>
      <point x="108" y="345" type="curve" smooth="yes"/>
      <point x="140" y="344"/>
      <point x="151" y="372"/>
      <point x="151" y="387" type="curve" smooth="yes"/>
      <point x="151" y="395"/>
      <point x="147" y="412"/>
      <point x="138" y="420" type="curve"/>
      <point x="152" y="456"/>
      <point x="193" y="479"/>
      <point x="237" y="479" type="curve" smooth="yes"/>
      <point x="328" y="479"/>
      <point x="336" y="407"/>
      <point x="336" y="336" type="curve" smooth="yes"/>
      <point x="336" y="275" type="line"/>
      <point x="203" y="277"/>
      <point x="34" y="223"/>
      <point x="34" y="100" type="curve" smooth="yes"/>
      <point x="34" y="33"/>
      <point x="89" y="-16"/>
      <point x="180" y="-16" type="curve" smooth="yes"/>
      <point x="252" y="-16"/>
      <point x="319" y="9"/>
      <point x="370" y="79" type="curve"/>
      <point x="371" y="79" type="line"/>
      <point x="408" y="12"/>
      <point x="471" y="-16"/>
      <point x="549" y="-16" type="curve" smooth="yes"/>
      <point x="617" y="-16"/>
      <point x="681" y="15"/>
      <point x="736" y="98" type="curve"/>
      <point x="711" y="118" type="line"/>
      <point x="678" y="71"/>
      <point x="635" y="35"/>
      <point x="573" y="35" type="curve" smooth="yes"/>
      <point x="481" y="35"/>
      <point x="413" y="125"/>
      <point x="425" y="289" type="curve"/>
      <point x="730" y="295" type="line"/>
      <point x="729" y="454"/>
      <point x="654" y="516"/>
      <point x="553" y="516" type="curve" smooth="yes"/>
    </contour>
    <contour>
      <point x="336" y="202"/>
      <point x="342" y="134"/>
      <point x="345" y="107" type="curve"/>
      <point x="306" y="63"/>
      <point x="259" y="37"/>
      <point x="199" y="41" type="curve" smooth="yes"/>
      <point x="167" y="43"/>
      <point x="131" y="63"/>
      <point x="129" y="112" type="curve" smooth="yes"/>
      <point x="126" y="206"/>
      <point x="244" y="237"/>
      <point x="335" y="241" type="curve"/>
    </contour>
    <contour>
      <point x="627" y="477"/>
      <point x="640" y="402"/>
      <point x="640" y="331" type="curve"/>
      <point x="432" y="331" type="line"/>
      <point x="441" y="410"/>
      <point x="471" y="477"/>
      <point x="549" y="477" type="curve" smooth="yes"/>
    </contour>
  </outline>
</glyph>
<glyph name="eth" format="1">
  <advance width="559"/>
  <unicode hex="00F0"/>
  <outline>
    <contour>
      <point x="237" y="729" type="line"/>
      <point x="197" y="746"/>
      <point x="155" y="757"/>
      <point x="107" y="760" type="curve"/>
      <point x="103" y="718" type="line"/>
      <point x="140" y="715"/>
      <point x="174" y="705"/>
      <point x="204" y="691" type="curve"/>
      <point x="146" y="622" type="line"/>
      <point x="182" y="592" type="line"/>
      <point x="243" y="669" type="line"/>
      <point x="333" y="610"/>
      <point x="385" y="510"/>
      <point x="405" y="430" type="curve"/>
      <point x="403" y="430" type="line"/>
      <point x="371" y="481"/>
      <point x="307" y="498"/>
      <point x="257" y="496" type="curve" smooth="yes"/>
      <point x="123" y="491"/>
      <point x="43" y="364"/>
      <point x="43" y="222" type="curve" smooth="yes"/>
      <point x="43" y="74"/>
      <point x="139" y="-16"/>
      <point x="259" y="-16" type="curve" smooth="yes"/>
      <point x="429" y="-16"/>
      <point x="503" y="114"/>
      <point x="502" y="272" type="curve" smooth="yes"/>
      <point x="501" y="458"/>
      <point x="419" y="629"/>
      <point x="276" y="710" type="curve"/>
      <point x="320" y="766" type="line"/>
      <point x="291" y="793" type="line"/>
    </contour>
    <contour>
      <point x="384" y="450"/>
      <point x="414" y="322"/>
      <point x="413" y="229" type="curve" smooth="yes"/>
      <point x="412" y="93"/>
      <point x="348" y="24"/>
      <point x="275" y="24" type="curve" smooth="yes"/>
      <point x="200" y="24"/>
      <point x="143" y="101"/>
      <point x="143" y="243" type="curve" smooth="yes"/>
      <point x="143" y="359"/>
      <point x="193" y="459"/>
      <point x="283" y="455" type="curve" smooth="yes"/>
    </contour>
  </outline>
</glyph>
<glyph name="thorn" format="1">
  <advance width="577"/>
  <unicode hex="00FE"/>
  <outline>
    <contour>
      <point x="132" y="755" type="line"/>
      <point x="117" y="741"/>
      <point x="97" y="728"/>
      <point x="9" y="728" type="curve"/>
      <point x="9" y="686" type="line"/>
      <point x="80" y="690" type="line"/>
      <point x="76" y="667"/>
      <point x="76" y="646"/>
      <point x="76" y="625" type="curve" smooth="yes"/>
      <point x="74" y="-103" type="line" smooth="yes"/>
      <point x="73" y="-175"/>
      <point x="76" y="-225"/>
      <point x="15" y="-225" type="curve"/>
      <point x="15" y="-255" type="line"/>
      <point x="219" y="-255" type="line"/>
      <point x="219" y="-214" type="line"/>
      <point x="156" y="-217" type="line"/>
      <point x="160" y="-194"/>
      <point x="160" y="-176"/>
      <point x="160" y="-149" type="curve" smooth="yes"/>
      <point x="160" y="15" type="line"/>
      <point x="193" y="-6"/>
      <point x="232" y="-16"/>
      <point x="279" y="-16" type="curve" smooth="yes"/>
      <point x="418" y="-16"/>
      <point x="534" y="94"/>
      <point x="534" y="264" type="curve" smooth="yes"/>
      <point x="534" y="419"/>
      <point x="432" y="516"/>
      <point x="311" y="516" type="curve" smooth="yes"/>
      <point x="255" y="516"/>
      <point x="201" y="495"/>
      <point x="160" y="462" type="curve"/>
      <point x="161" y="755" type="line"/>
    </contour>
    <contour>
      <point x="386" y="467"/>
      <point x="431" y="357"/>
      <point x="431" y="249" type="curve" smooth="yes"/>
      <point x="431" y="117"/>
      <point x="372" y="24"/>
      <point x="277" y="24" type="curve" smooth="yes"/>
      <point x="233" y="24"/>
      <point x="193" y="37"/>
      <point x="160" y="62" type="curve"/>
      <point x="160" y="416" type="line"/>
      <point x="189" y="446"/>
      <point x="231" y="467"/>
      <point x="277" y="467" type="curve" smooth="yes"/>
    </contour>
  </outline>
</glyph>
<glyph name="Lslash" format="1">
  <advance width="578"/>
  <unicode hex="0141"/>
  <outline>
    <contour>
      <point x="48" y="284" type="line"/>
      <point x="48" y="228" type="line"/>
      <point x="390" y="481" type="line"/>
      <point x="390" y="536" type="line"/>
    </contour>
    <component base="L"/>
  </outline>
</glyph>
<glyph name="OE" format="1">
  <advance width="1022"/>
  <unicode hex="0152"/>
  <outline>
    <contour>
      <point x="155" y="710"/>
      <point x="46" y="517"/>
      <point x="46" y="329" type="curve" smooth="yes"/>
      <point x="46" y="130"/>
      <point x="174" y="-16"/>
      <point x="385" y="-16" type="curve" smooth="yes"/>
      <point x="424" y="-16"/>
      <point x="471" y="-11"/>
      <point x="524" y="0" type="curve"/>
      <point x="971" y="0" type="line"/>
      <point x="977" y="195" type="line"/>
      <point x="943" y="195" type="line"/>
      <point x="943" y="76"/>
      <point x="887" y="34"/>
      <point x="800" y="37" type="curve" smooth="yes"/>
      <point x="608" y="43" type="line"/>
      <point x="610" y="60"/>
      <point x="611" y="85"/>
      <point x="611" y="121" type="curve" smooth="yes"/>
      <point x="611" y="343" type="line"/>
      <point x="686" y="347" type="line" smooth="yes"/>
      <point x="771" y="350"/>
      <point x="805" y="347"/>
      <point x="805" y="259" type="curve"/>
      <point x="838" y="259" type="line"/>
      <point x="838" y="469" type="line"/>
      <point x="793" y="469" type="line"/>
      <point x="801" y="383" type="line"/>
      <point x="611" y="383" type="line"/>
      <point x="611" y="544" type="line" smooth="yes"/>
      <point x="611" y="625"/>
      <point x="612" y="661"/>
      <point x="687" y="663" type="curve" smooth="yes"/>
      <point x="773" y="665" type="line" smooth="yes"/>
      <point x="848" y="667"/>
      <point x="908" y="643"/>
      <point x="908" y="525" type="curve"/>
      <point x="941" y="525" type="line"/>
      <point x="936" y="700" type="line"/>
      <point x="524" y="700" type="line"/>
      <point x="484" y="709"/>
      <point x="435" y="716"/>
      <point x="397" y="716" type="curve" smooth="yes"/>
    </contour>
    <contour>
      <point x="439" y="674"/>
      <point x="486" y="668"/>
      <point x="524" y="651" type="curve"/>
      <point x="524" y="48" type="line"/>
      <point x="484" y="37"/>
      <point x="451" y="32"/>
      <point x="414" y="32" type="curve" smooth="yes"/>
      <point x="256" y="32"/>
      <point x="146" y="155"/>
      <point x="144" y="344" type="curve" smooth="yes"/>
      <point x="142" y="550"/>
      <point x="258" y="674"/>
      <point x="400" y="674" type="curve" smooth="yes"/>
    </contour>
  </outline>
</glyph>
<glyph name="ring" format="1">
  <advance width="318"/>
  <unicode hex="02DA"/>
  <outline>
    <contour>
      <point x="109" y="761"/>
      <point x="59" y="720"/>
      <point x="61" y="661" type="curve" smooth="yes"/>
      <point x="63" y="598"/>
      <point x="112" y="570"/>
      <point x="160" y="570" type="curve" smooth="yes"/>
      <point x="208" y="570"/>
      <point x="259" y="609"/>
      <point x="257" y="671" type="curve" smooth="yes"/>
      <point x="255" y="733"/>
      <point x="205" y="761"/>
      <point x="158" y="761" type="curve" smooth="yes"/>
    </contour>
    <contour>
      <point x="187" y="731"/>
      <point x="204" y="702"/>
      <point x="204" y="660" type="curve" smooth="yes"/>
      <point x="204" y="625"/>
      <point x="187" y="602"/>
      <point x="163" y="601" type="curve" smooth="yes"/>
      <point x="132" y="600"/>
      <point x="114" y="631"/>
      <point x="114" y="670" type="curve" smooth="yes"/>
      <point x="114" y="705"/>
      <point x="132" y="729"/>
      <point x="158" y="730" type="curve" smooth="yes"/>
    </contour>
    <contour>
      <point x="159" y="500" type="move" name="_top"/>
    </contour>
  </outline>
</glyph>
<glyph name="tilde" format="1">
  <advance width="406"/>
  <unicode hex="02DC"/>
  <outline>
    <contour>
      <point x="100" y="726"/>
      <point x="52" y="688"/>
      <point x="35" y="641" type="curve"/>
      <point x="65" y="624" type="line"/>
      <point x="84" y="654"/>
      <point x="114" y="666"/>
      <point x="138" y="666" type="curve" smooth="yes"/>
      <point x="175" y="666"/>
      <point x="207" y="612"/>
      <point x="269" y="612" type="curve" smooth="yes"/>
      <point x="304" y="612"/>
      <point x="349" y="641"/>
      <point x="371" y="707" type="curve"/>
      <point x="342" y="722" type="line"/>
      <point x="326" y="693"/>
      <point x="298" y="674"/>
      <point x="269" y="674" type="curve" smooth="yes"/>
      <point x="225" y="674"/>
      <point x="200" y="729"/>
      <point x="137" y="727" type="curve" smooth="yes"/>
    </contour>
    <contour>
      <point x="203" y="500" type="move" name="_top"/>
    </contour>
  </outline>
</glyph>
<glyph name="Nje-cy" format="1">
  <advance width="1016"/>
  <unicode hex="040A"/>
  <outline>
    <contour>
      <point x="480" y="700" type="line"/>
      <point x="480" y="656" type="line"/>
      <point x="553" y="660" type="line"/>
      <point x="551" y="640"/>
      <point x="550" y="615"/>
      <point x="550" y="588" type="curve" smooth="yes"/>
      <point x="550" y="156" type="line" smooth="yes"/>
      <point x="550" y="83"/>
      <point x="554" y="35"/>
      <point x="481" y="33" type="curve"/>
      <point x="481" y="0" type="line"/>
      <point x="749" y="0" type="line" smooth="yes"/>
      <point x="884" y="0"/>
      <point x="984" y="73"/>
      <point x="984" y="213" type="curve" smooth="yes"/>
      <point x="984" y="331"/>
      <point x="913" y="419"/>
      <point x="693" y="410" type="curve" smooth="yes"/>
      <point x="637" y="407" type="line"/>
      <point x="637" y="544" type="line" smooth="yes"/>
      <point x="637" y="615"/>
      <point x="631" y="664"/>
      <point x="706" y="667" type="curve"/>
      <point x="706" y="700" type="line"/>
    </contour>
    <contour>
      <point x="55" y="700" type="line"/>
      <point x="55" y="656" type="line"/>
      <point x="127" y="660" type="line"/>
      <point x="125" y="640"/>
      <point x="124" y="615"/>
      <point x="124" y="588" type="curve" smooth="yes"/>
      <point x="124" y="156" type="line" smooth="yes"/>
      <point x="124" y="85"/>
      <point x="130" y="36"/>
      <point x="55" y="33" type="curve"/>
      <point x="55" y="0" type="line"/>
      <point x="280" y="0" type="line"/>
      <point x="280" y="44" type="line"/>
      <point x="208" y="40" type="line"/>
      <point x="210" y="57"/>
      <point x="211" y="83"/>
      <point x="211" y="119" type="curve" smooth="yes"/>
      <point x="211" y="364" type="line"/>
      <point x="558" y="369" type="line"/>
      <point x="558" y="408" type="line"/>
      <point x="211" y="408" type="line"/>
      <point x="211" y="544" type="line" smooth="yes"/>
      <point x="211" y="615"/>
      <point x="205" y="664"/>
      <point x="280" y="667" type="curve"/>
      <point x="280" y="700" type="line"/>
    </contour>
    <contour>
      <point x="807" y="372"/>
      <point x="888" y="336"/>
      <point x="888" y="209" type="curve" smooth="yes"/>
      <point x="888" y="90"/>
      <point x="818" y="38"/>
      <point x="715" y="38" type="curve" smooth="yes"/>
      <point x="703" y="38"/>
      <point x="665" y="37"/>
      <point x="634" y="40" type="curve"/>
      <point x="636" y="57"/>
      <point x="637" y="82"/>
      <point x="637" y="118" type="curve" smooth="yes"/>
      <point x="637" y="369" type="line"/>
      <point x="669" y="371"/>
      <point x="676" y="372"/>
      <point x="715" y="372" type="curve" smooth="yes"/>
    </contour>
  </outline>
</glyph>
<glyph name="Tshe-cy" format="1">
  <advance width="820"/>
  <unicode hex="040B"/>
  <outline>
    <contour>
      <point x="28" y="700" type="line"/>
      <point x="22" y="489" type="line"/>
      <point x="59" y="489" type="line"/>
      <point x="59" y="607"/>
      <point x="90" y="662"/>
      <point x="174" y="662" type="curve" smooth="yes"/>
      <point x="277" y="663" type="line"/>
      <point x="276" y="156" type="line" smooth="yes"/>
      <point x="276" y="88"/>
      <point x="283" y="36"/>
      <point x="208" y="33" type="curve"/>
      <point x="208" y="0" type="line"/>
      <point x="443" y="0" type="line"/>
      <point x="443" y="44" type="line"/>
      <point x="360" y="40" type="line"/>
      <point x="362" y="57"/>
      <point x="363" y="83"/>
      <point x="363" y="119" type="curve" smooth="yes"/>
      <point x="364" y="664" type="line"/>
      <point x="449" y="664" type="line" smooth="yes"/>
      <point x="552" y="665"/>
      <point x="577" y="607"/>
      <point x="579" y="489" type="curve"/>
      <point x="617" y="489" type="line"/>
      <point x="611" y="700" type="line"/>
    </contour>
    <contour>
      <point x="631" y="90"/>
      <point x="642" y="36"/>
      <point x="563" y="33" type="curve"/>
      <point x="563" y="0" type="line"/>
      <point x="788" y="0" type="line"/>
      <point x="788" y="44" type="line"/>
      <point x="716" y="40" type="line"/>
      <point x="719" y="62"/>
      <point x="719" y="90"/>
      <point x="719" y="227" type="curve"/>
      <point x="632" y="250" type="line"/>
    </contour>
    <contour>
      <point x="447" y="427"/>
      <point x="385" y="412"/>
      <point x="343" y="389" type="curve"/>
      <point x="343" y="340" type="line"/>
      <point x="376" y="361"/>
      <point x="422" y="375"/>
      <point x="476" y="376" type="curve" smooth="yes"/>
      <point x="586" y="377"/>
      <point x="631" y="317"/>
      <point x="632" y="250" type="curve"/>
      <point x="719" y="227" type="line"/>
      <point x="719" y="355"/>
      <point x="657" y="427"/>
      <point x="513" y="427" type="curve" smooth="yes"/>
    </contour>
  </outline>
</glyph>
<glyph name="Ef-cy" format="1">
  <advance width="820"/>
  <unicode hex="0424"/>
  <outline>
    <contour>
      <point x="406" y="607" type="line"/>
      <point x="583" y="607"/>
      <point x="678" y="520"/>
      <point x="678" y="332" type="curve" smooth="yes"/>
      <point x="678" y="183"/>
      <point x="586" y="112"/>
      <point x="417" y="112" type="curve"/>
      <point x="417" y="72" type="line"/>
      <point x="665" y="72"/>
      <point x="776" y="183"/>
      <point x="776" y="350" type="curve" smooth="yes"/>
      <point x="776" y="534"/>
      <point x="645" y="648"/>
      <point x="406" y="648" type="curve"/>
    </contour>
    <contour>
      <point x="158" y="648"/>
      <point x="46" y="520"/>
      <point x="46" y="335" type="curve" smooth="yes"/>
      <point x="46" y="168"/>
      <point x="178" y="72"/>
      <point x="417" y="72" type="curve"/>
      <point x="417" y="113" type="line"/>
      <point x="240" y="113"/>
      <point x="144" y="183"/>
      <point x="144" y="354" type="curve" smooth="yes"/>
      <point x="144" y="520"/>
      <point x="236" y="608"/>
      <point x="405" y="608" type="curve"/>
      <point x="405" y="648" type="line"/>
    </contour>
    <contour>
      <point x="294" y="759" type="line"/>
      <point x="294" y="715" type="line"/>
      <point x="367" y="719" type="line"/>
      <point x="364" y="699"/>
      <point x="363" y="674"/>
      <point x="363" y="647" type="curve" smooth="yes"/>
      <point x="363" y="122" type="line" smooth="yes"/>
      <point x="363" y="51"/>
      <point x="370" y="-13"/>
      <point x="294" y="-16" type="curve"/>
      <point x="294" y="-49" type="line"/>
      <point x="520" y="-49" type="line"/>
      <point x="520" y="-5" type="line"/>
      <point x="447" y="-9" type="line"/>
      <point x="450" y="8"/>
      <point x="451" y="49"/>
      <point x="451" y="85" type="curve" smooth="yes"/>
      <point x="451" y="603" type="line" smooth="yes"/>
      <point x="451" y="674"/>
      <point x="444" y="723"/>
      <point x="520" y="726" type="curve"/>
      <point x="520" y="759" type="line"/>
    </contour>
  </outline>
</glyph>
<glyph name="Sha-cy" format="1">
  <advance width="1005"/>
  <unicode hex="0428"/>
  <outline>
    <contour>
      <point x="734" y="700" type="line"/>
      <point x="734" y="656" type="line"/>
      <point x="797" y="660" type="line"/>
      <point x="794" y="643"/>
      <point x="793" y="617"/>
      <point x="793" y="581" type="curve" smooth="yes"/>
      <point x="793" y="44" type="line"/>
      <point x="211" y="40" type="line"/>
      <point x="211" y="544" type="line" smooth="yes"/>
      <point x="211" y="615"/>
      <point x="205" y="664"/>
      <point x="280" y="667" type="curve"/>
      <point x="280" y="700" type="line"/>
      <point x="55" y="700" type="line"/>
      <point x="55" y="656" type="line"/>
      <point x="127" y="660" type="line"/>
      <point x="125" y="643"/>
      <point x="124" y="617"/>
      <point x="124" y="581" type="curve" smooth="yes"/>
      <point x="124" y="156" type="line" smooth="yes"/>
      <point x="124" y="85"/>
      <point x="130" y="36"/>
      <point x="55" y="33" type="curve"/>
      <point x="55" y="0" type="line"/>
      <point x="950" y="0" type="line"/>
      <point x="950" y="44" type="line"/>
      <point x="877" y="40" type="line"/>
      <point x="880" y="60"/>
      <point x="881" y="85"/>
      <point x="881" y="112" type="curve" smooth="yes"/>
      <point x="881" y="544" type="line" smooth="yes"/>
      <point x="881" y="615"/>
      <point x="875" y="664"/>
      <point x="950" y="667" type="curve"/>
      <point x="950" y="700" type="line"/>
    </contour>
    <contour>
      <point x="399" y="700" type="line"/>
      <point x="399" y="656" type="line"/>
      <point x="462" y="660" type="line"/>
      <point x="459" y="643"/>
      <point x="458" y="617"/>
      <point x="458" y="581" type="curve" smooth="yes"/>
      <point x="458" y="41" type="line"/>
      <point x="542" y="37" type="line"/>
      <point x="545" y="62"/>
      <point x="546" y="85"/>
      <point x="546" y="112" type="curve" smooth="yes"/>
      <point x="546" y="544" type="line" smooth="yes"/>
      <point x="546" y="615"/>
      <point x="540" y="664"/>
      <point x="615" y="667" type="curve"/>
      <point x="615" y="700" type="line"/>
    </contour>
  </outline>
</glyph>
<glyph name="Yeru-cy" format="1">
  <advance width="898"/>
  <unicode hex="042B"/>
  <outline>
    <contour>
      <point x="55" y="700" type="line"/>
      <point x="55" y="656" type="line"/>
      <point x="127" y="660" type="line"/>
      <point x="125" y="640"/>
      <point x="124" y="615"/>
      <point x="124" y="588" type="curve" smooth="yes"/>
      <point x="124" y="156" type="line" smooth="yes"/>
      <point x="124" y="84"/>
      <point x="129" y="35"/>
      <point x="55" y="33" type="curve"/>
      <point x="55" y="0" type="line"/>
      <point x="347" y="0" type="line" smooth="yes"/>
      <point x="468" y="0"/>
      <point x="568" y="73"/>
      <point x="568" y="213" type="curve" smooth="yes"/>
      <point x="568" y="331"/>
      <point x="497" y="416"/>
      <point x="292" y="410" type="curve" smooth="yes"/>
      <point x="211" y="407" type="line"/>
      <point x="211" y="544" type="line" smooth="yes"/>
      <point x="211" y="615"/>
      <point x="205" y="664"/>
      <point x="280" y="667" type="curve"/>
      <point x="280" y="700" type="line"/>
    </contour>
    <contour>
      <point x="391" y="372"/>
      <point x="472" y="336"/>
      <point x="472" y="209" type="curve" smooth="yes"/>
      <point x="472" y="90"/>
      <point x="402" y="38"/>
      <point x="314" y="38" type="curve" smooth="yes"/>
      <point x="301" y="38"/>
      <point x="239" y="37"/>
      <point x="208" y="40" type="curve"/>
      <point x="210" y="57"/>
      <point x="211" y="82"/>
      <point x="211" y="118" type="curve" smooth="yes"/>
      <point x="211" y="369" type="line"/>
      <point x="243" y="371"/>
      <point x="274" y="372"/>
      <point x="314" y="372" type="curve" smooth="yes"/>
    </contour>
    <contour>
      <point x="619" y="700" type="line"/>
      <point x="619" y="656" type="line"/>
      <point x="691" y="660" type="line"/>
      <point x="688" y="640"/>
      <point x="688" y="615"/>
      <point x="688" y="588" type="curve" smooth="yes"/>
      <point x="688" y="156" type="line" smooth="yes"/>
      <point x="688" y="85"/>
      <point x="694" y="36"/>
      <point x="619" y="33" type="curve"/>
      <point x="619" y="0" type="line"/>
      <point x="844" y="0" type="line"/>
      <point x="844" y="44" type="line"/>
      <point x="771" y="40" type="line"/>
      <point x="774" y="57"/>
      <point x="775" y="83"/>
      <point x="775" y="119" type="curve" smooth="yes"/>
      <point x="775" y="544" type="line" smooth="yes"/>
      <point x="775" y="615"/>
      <point x="769" y="664"/>
      <point x="844" y="667" type="curve"/>
      <point x="844" y="700" type="line"/>
    </contour>
  </outline>
</glyph>
<glyph name="zhe-cy" format="1">
  <advance width="775"/>
  <unicode hex="0436"/>
  <outline>
    <contour>
      <point x="289" y="500" type="line"/>
      <point x="289" y="459" type="line"/>
      <point x="352" y="462" type="line"/>
      <point x="348" y="439"/>
      <point x="348" y="421"/>
      <point x="348" y="394" type="curve" smooth="yes"/>
      <point x="347" y="152" type="line" smooth="yes"/>
      <point x="346" y="80"/>
      <point x="348" y="30"/>
      <point x="287" y="30" type="curve"/>
      <point x="287" y="0" type="line"/>
      <point x="486" y="0" type="line"/>
      <point x="486" y="41" type="line"/>
      <point x="423" y="38" type="line"/>
      <point x="427" y="61"/>
      <point x="427" y="79"/>
      <point x="427" y="106" type="curve" smooth="yes"/>
      <point x="429" y="348" type="line" smooth="yes"/>
      <point x="429" y="420"/>
      <point x="427" y="470"/>
      <point x="488" y="470" type="curve"/>
      <point x="488" y="500" type="line"/>
    </contour>
    <contour>
      <point x="221" y="263"/>
      <point x="164" y="185"/>
      <point x="121" y="126" type="curve" smooth="yes"/>
      <point x="77" y="65"/>
      <point x="42" y="30"/>
      <point x="7" y="30" type="curve"/>
      <point x="7" y="0" type="line"/>
      <point x="95" y="0" type="line" smooth="yes"/>
      <point x="127" y="0"/>
      <point x="159" y="40"/>
      <point x="201" y="95" type="curve" smooth="yes"/>
      <point x="234" y="140"/>
      <point x="275" y="203"/>
      <point x="314" y="248" type="curve"/>
      <point x="261" y="285" type="line"/>
    </contour>
    <contour>
      <point x="19" y="500" type="line"/>
      <point x="19" y="470" type="line"/>
      <point x="86" y="463"/>
      <point x="144" y="403"/>
      <point x="179" y="365" type="curve" smooth="yes"/>
      <point x="275" y="246" type="line"/>
      <point x="361" y="243" type="line"/>
      <point x="361" y="282" type="line"/>
      <point x="299" y="282" type="line"/>
      <point x="191" y="410" type="line" smooth="yes"/>
      <point x="169" y="433"/>
      <point x="151" y="451"/>
      <point x="132" y="463" type="curve"/>
      <point x="201" y="460" type="line"/>
      <point x="201" y="500" type="line"/>
    </contour>
    <contour>
      <point x="461" y="248" type="line"/>
      <point x="500" y="203"/>
      <point x="541" y="140"/>
      <point x="575" y="95" type="curve" smooth="yes"/>
      <point x="616" y="40"/>
      <point x="648" y="0"/>
      <point x="680" y="0" type="curve" smooth="yes"/>
      <point x="768" y="0" type="line"/>
      <point x="768" y="30" type="line"/>
      <point x="733" y="30"/>
      <point x="698" y="65"/>
      <point x="654" y="126" type="curve" smooth="yes"/>
      <point x="612" y="185"/>
      <point x="555" y="263"/>
      <point x="515" y="285" type="curve"/>
    </contour>
    <contour>
      <point x="575" y="500" type="line"/>
      <point x="575" y="460" type="line"/>
      <point x="643" y="463" type="line"/>
      <point x="624" y="451"/>
      <point x="606" y="433"/>
      <point x="584" y="410" type="curve" smooth="yes"/>
      <point x="477" y="282" type="line"/>
      <point x="414" y="282" type="line"/>
      <point x="414" y="243" type="line"/>
      <point x="500" y="246" type="line"/>
      <point x="597" y="365" type="line" smooth="yes"/>
      <point x="632" y="403"/>
      <point x="689" y="463"/>
      <point x="757" y="470" type="curve"/>
      <point x="757" y="500" type="line"/>
    </contour>
  </outline>
</glyph>
<glyph name="ii-cy" format="1">
  <advance width="627"/>
  <unicode hex="0438"/>
  <outline>
    <contour>
      <point x="137" y="71" type="line"/>
      <point x="171" y="43" type="line"/>
      <point x="478" y="428" type="line"/>
      <point x="446" y="452" type="line"/>
    </contour>
    <contour>
      <point x="45" y="500" type="line"/>
      <point x="45" y="459" type="line"/>
      <point x="108" y="462" type="line"/>
      <point x="104" y="439"/>
      <point x="104" y="421"/>
      <point x="104" y="394" type="curve" smooth="yes"/>
      <point x="104" y="152" type="line" smooth="yes"/>
      <point x="103" y="80"/>
      <point x="105" y="30"/>
      <point x="44" y="30" type="curve"/>
      <point x="44" y="0" type="line"/>
      <point x="248" y="0" type="line"/>
      <point x="248" y="41" type="line"/>
      <point x="185" y="38" type="line"/>
      <point x="189" y="61"/>
      <point x="189" y="79"/>
      <point x="189" y="106" type="curve" smooth="yes"/>
      <point x="190" y="348" type="line" smooth="yes"/>
      <point x="191" y="420"/>
      <point x="188" y="470"/>
      <point x="250" y="470" type="curve"/>
      <point x="250" y="500" type="line"/>
    </contour>
    <contour>
      <point x="379" y="500" type="line"/>
      <point x="379" y="459" type="line"/>
      <point x="442" y="462" type="line"/>
      <point x="438" y="439"/>
      <point x="438" y="421"/>
      <point x="438" y="394" type="curve" smooth="yes"/>
      <point x="437" y="152" type="line" smooth="yes"/>
      <point x="437" y="80"/>
      <point x="438" y="30"/>
      <point x="377" y="30" type="curve"/>
      <point x="377" y="0" type="line"/>
      <point x="582" y="0" type="line"/>
      <point x="582" y="41" type="line"/>
      <point x="519" y="38" type="line"/>
      <point x="522" y="61"/>
      <point x="522" y="79"/>
      <point x="522" y="106" type="curve" smooth="yes"/>
      <point x="524" y="348" type="line" smooth="yes"/>
      <point x="524" y="420"/>
      <point x="522" y="470"/>
      <point x="583" y="470" type="curve"/>
      <point x="583" y="500" type="line"/>
    </contour>
  </outline>
</glyph>
<glyph name="pe-cy" format="1">
  <advance width="615"/>
  <unicode hex="043F"/>
  <outline>
    <contour>
      <point x="147" y="500" type="line"/>
      <point x="147" y="459" type="line"/>
      <point x="430" y="462" type="line"/>
      <point x="426" y="439"/>
      <point x="426" y="421"/>
      <point x="426" y="394" type="curve" smooth="yes"/>
      <point x="425" y="152" type="line" smooth="yes"/>
      <point x="424" y="80"/>
      <point x="426" y="30"/>
      <point x="365" y="30" type="curve"/>
      <point x="365" y="0" type="line"/>
      <point x="569" y="0" type="line"/>
      <point x="569" y="41" type="line"/>
      <point x="506" y="38" type="line"/>
      <point x="510" y="61"/>
      <point x="510" y="79"/>
      <point x="510" y="106" type="curve" smooth="yes"/>
      <point x="512" y="348" type="line" smooth="yes"/>
      <point x="512" y="420"/>
      <point x="510" y="470"/>
      <point x="571" y="470" type="curve"/>
      <point x="571" y="500" type="line"/>
    </contour>
    <contour>
      <point x="45" y="500" type="line"/>
      <point x="45" y="459" type="line"/>
      <point x="108" y="462" type="line"/>
      <point x="104" y="439"/>
      <point x="104" y="421"/>
      <point x="104" y="394" type="curve" smooth="yes"/>
      <point x="104" y="152" type="line" smooth="yes"/>
      <point x="103" y="80"/>
      <point x="105" y="30"/>
      <point x="44" y="30" type="curve"/>
      <point x="44" y="0" type="line"/>
      <point x="248" y="0" type="line"/>
      <point x="248" y="41" type="line"/>
      <point x="185" y="38" type="line"/>
      <point x="189" y="61"/>
      <point x="189" y="79"/>
      <point x="189" y="106" type="curve" smooth="yes"/>
      <point x="190" y="348" type="line" smooth="yes"/>
      <point x="191" y="420"/>
      <point x="188" y="460"/>
      <point x="250" y="460" type="curve"/>
      <point x="250" y="500" type="line"/>
    </contour>
  </outline>
</glyph>
<glyph name="te-cy" format="1">
  <advance width="495"/>
  <unicode hex="0442"/>
  <outline>
    <contour>
      <point x="26" y="500" type="line"/>
      <point x="22" y="349" type="line"/>
      <point x="60" y="349" type="line"/>
      <point x="60" y="433"/>
      <point x="83" y="458"/>
      <point x="137" y="458" type="curve" smooth="yes"/>
      <point x="209" y="458" type="line"/>
      <point x="205" y="435"/>
      <point x="205" y="421"/>
      <point x="205" y="394" type="curve" smooth="yes"/>
      <point x="205" y="152" type="line" smooth="yes"/>
      <point x="204" y="80"/>
      <point x="206" y="30"/>
      <point x="145" y="30" type="curve"/>
      <point x="145" y="0" type="line"/>
      <point x="349" y="0" type="line"/>
      <point x="349" y="41" type="line"/>
      <point x="286" y="38" type="line"/>
      <point x="290" y="61"/>
      <point x="290" y="79"/>
      <point x="290" y="106" type="curve" smooth="yes"/>
      <point x="290" y="458" type="line"/>
      <point x="352" y="458" type="line"/>
      <point x="415" y="458"/>
      <point x="433" y="433"/>
      <point x="435" y="349" type="curve"/>
      <point x="473" y="349" type="line"/>
      <point x="468" y="500" type="line"/>
    </contour>
  </outline>
</glyph>
<glyph name="lje-cy" format="1">
  <advance width="757"/>
  <unicode hex="0459"/>
  <outline>
    <contour>
      <point x="383" y="115" type="line" smooth="yes"/>
      <point x="383" y="63"/>
      <point x="372" y="31"/>
      <point x="323" y="30" type="curve"/>
      <point x="323" y="0" type="line"/>
      <point x="562" y="0" type="line" smooth="yes"/>
      <point x="649" y="0"/>
      <point x="725" y="52"/>
      <point x="725" y="148" type="curve" smooth="yes"/>
      <point x="725" y="228"/>
      <point x="673" y="297"/>
      <point x="512" y="292" type="curve" smooth="yes"/>
      <point x="469" y="290" type="line"/>
      <point x="469" y="348" type="line"/>
      <point x="383" y="394" type="line"/>
    </contour>
    <contour>
      <point x="603" y="254"/>
      <point x="637" y="214"/>
      <point x="637" y="146" type="curve" smooth="yes"/>
      <point x="637" y="69"/>
      <point x="587" y="40"/>
      <point x="525" y="40" type="curve" smooth="yes"/>
      <point x="516" y="40"/>
      <point x="489" y="39"/>
      <point x="467" y="41" type="curve"/>
      <point x="468" y="53"/>
      <point x="469" y="71"/>
      <point x="469" y="97" type="curve" smooth="yes"/>
      <point x="469" y="252" type="line"/>
      <point x="492" y="253"/>
      <point x="497" y="254"/>
      <point x="525" y="254" type="curve" smooth="yes"/>
    </contour>
    <contour>
      <point x="242" y="472" type="line"/>
      <point x="239" y="383" type="line"/>
      <point x="265" y="383" type="line"/>
      <point x="265" y="431"/>
      <point x="278" y="462"/>
      <point x="324" y="462" type="curve"/>
      <point x="324" y="477" type="line"/>
    </contour>
    <contour>
      <point x="123" y="500" type="line"/>
      <point x="123" y="457" type="line"/>
      <point x="231" y="462" type="line"/>
      <point x="387" y="462" type="line"/>
      <point x="383" y="439"/>
      <point x="383" y="421"/>
      <point x="383" y="394" type="curve"/>
      <point x="469" y="348" type="line"/>
      <point x="470" y="420"/>
      <point x="467" y="470"/>
      <point x="528" y="470" type="curve"/>
      <point x="528" y="500" type="line"/>
    </contour>
    <contour>
      <point x="211" y="492" type="line"/>
      <point x="212" y="421" type="line"/>
      <point x="204" y="173"/>
      <point x="150" y="39"/>
      <point x="111" y="39" type="curve" smooth="yes"/>
      <point x="106" y="39"/>
      <point x="103" y="40"/>
      <point x="100" y="43" type="curve"/>
      <point x="101" y="48"/>
      <point x="101" y="53"/>
      <point x="101" y="57" type="curve" smooth="yes"/>
      <point x="101" y="73"/>
      <point x="88" y="93"/>
      <point x="56" y="93" type="curve" smooth="yes"/>
      <point x="27" y="92"/>
      <point x="12" y="71"/>
      <point x="12" y="42" type="curve" smooth="yes"/>
      <point x="12" y="3"/>
      <point x="44" y="-16"/>
      <point x="92" y="-16" type="curve" smooth="yes"/>
      <point x="205" y="-16"/>
      <point x="255" y="188"/>
      <point x="265" y="377" type="curve" smooth="yes"/>
      <point x="265" y="413"/>
      <point x="266" y="451"/>
      <point x="267" y="492" type="curve"/>
    </contour>
  </outline>
</glyph>
<glyph name="tshe-cy" format="1">
  <advance width="599"/>
  <unicode hex="045B"/>
  <outline>
    <contour>
      <point x="21" y="625" type="line"/>
      <point x="21" y="574" type="line"/>
      <point x="384" y="578" type="line"/>
      <point x="384" y="625" type="line"/>
    </contour>
    <component base="h"/>
  </outline>
</glyph>
<glyph name="dzhe-cy" format="1">
  <advance width="615"/>
  <unicode hex="045F"/>
  <outline>
    <contour>
      <point x="315" y="31" type="line"/>
      <point x="221" y="0" type="line"/>
      <point x="287" y="0"/>
      <point x="304" y="-78"/>
      <point x="304" y="-178" type="curve"/>
      <point x="342" y="-178" type="line"/>
      <point x="342" y="32" type="line"/>
    </contour>
    <component base="pe-cy" xOffset="615" yOffset="500" xScale="-1" yScale="-1"/>
  </outline>
</glyph>
<glyph name="Gheupturn-cy" format="1">
  <advance width="548"/>
  <unicode hex="0490"/>
  <outline>
    <contour>
      <point x="519" y="664" type="line"/>
      <point x="524" y="839" type="line"/>
      <point x="491" y="839" type="line"/>
      <point x="491" y="721"/>
      <point x="428" y="700"/>
      <point x="353" y="700" type="curve" smooth="yes"/>
      <point x="325" y="700" type="line"/>
      <point x="325" y="664" type="line"/>
    </contour>
    <contour>
      <point x="325" y="700" type="line"/>
      <point x="55" y="700" type="line"/>
      <point x="55" y="656" type="line"/>
      <point x="127" y="660" type="line"/>
      <point x="125" y="640"/>
      <point x="124" y="615"/>
      <point x="124" y="588" type="curve" smooth="yes"/>
      <point x="124" y="156" type="line" smooth="yes"/>
      <point x="124" y="85"/>
      <point x="130" y="36"/>
      <point x="55" y="33" type="curve"/>
      <point x="55" y="0" type="line"/>
      <point x="310" y="0" type="line"/>
      <point x="310" y="44" type="line"/>
      <point x="208" y="40" type="line"/>
      <point x="210" y="57"/>
      <point x="211" y="83"/>
      <point x="211" y="119" type="curve" smooth="yes"/>
      <point x="211" y="540" type="line" smooth="yes"/>
      <point x="211" y="609"/>
      <point x="206" y="661"/>
      <point x="280" y="663" type="curve" smooth="yes"/>
      <point x="325" y="664" type="line"/>
    </contour>
  </outline>
</glyph>
<glyph name="aShort-deva" format="1">
  <advance width="768"/>
  <unicode hex="0904"/>
  <outline>
    <contour>
      <point x="355" y="47"/>
      <point x="394" y="64"/>
      <point x="426" y="97" type="curve" smooth="yes"/>
      <point x="459" y="131"/>
      <point x="475" y="172"/>
      <point x="475" y="220" type="curve" smooth="yes"/>
      <point x="475" y="252"/>
      <point x="466" y="278"/>
      <point x="449" y="293" type="curve"/>
      <point x="466" y="281"/>
      <point x="498" y="273"/>
      <point x="535" y="273" type="curve" smooth="yes"/>
      <point x="559" y="273"/>
      <point x="581" y="281"/>
      <point x="602" y="300" type="curve"/>
      <point x="602" y="0" type="line"/>
      <point x="668" y="0" type="line"/>
      <point x="668" y="606" type="line"/>
      <point x="782" y="606" type="line"/>
      <point x="782" y="666" type="line"/>
      <point x="673" y="666" type="line"/>
      <point x="673" y="719"/>
      <point x="653" y="765"/>
      <point x="614" y="802" type="curve" smooth="yes"/>
      <point x="575" y="840"/>
      <point x="528" y="859"/>
      <point x="473" y="859" type="curve" smooth="yes"/>
      <point x="409" y="859"/>
      <point x="352" y="913"/>
      <point x="340" y="986" type="curve"/>
      <point x="273" y="986" type="line"/>
      <point x="282" y="933"/>
      <point x="306" y="890"/>
      <point x="343" y="856" type="curve"/>
      <point x="381" y="823"/>
      <point x="424" y="806"/>
      <point x="473" y="806" type="curve" smooth="yes"/>
      <point x="510" y="806"/>
      <point x="541" y="792"/>
      <point x="567" y="764" type="curve" smooth="yes"/>
      <point x="593" y="737"/>
      <point x="606" y="704"/>
      <point x="606" y="666" type="curve"/>
      <point x="482" y="666" type="line"/>
      <point x="482" y="606" type="line"/>
      <point x="602" y="606" type="line"/>
      <point x="602" y="366" type="line"/>
      <point x="565" y="345"/>
      <point x="535" y="333"/>
      <point x="515" y="333" type="curve" smooth="yes"/>
      <point x="483" y="333"/>
      <point x="430" y="354"/>
      <point x="362" y="393" type="curve"/>
      <point x="399" y="425"/>
      <point x="422" y="468"/>
      <point x="422" y="513" type="curve" smooth="yes"/>
      <point x="422" y="556"/>
      <point x="408" y="592"/>
      <point x="379" y="621" type="curve"/>
      <point x="351" y="651"/>
      <point x="317" y="666"/>
      <point x="276" y="666" type="curve" smooth="yes"/>
      <point x="192" y="666"/>
      <point x="116" y="627"/>
      <point x="69" y="559" type="curve"/>
      <point x="116" y="513" type="line"/>
      <point x="165" y="572"/>
      <point x="224" y="606"/>
      <point x="276" y="606" type="curve" smooth="yes"/>
      <point x="319" y="606"/>
      <point x="354" y="564"/>
      <point x="354" y="513" type="curve" smooth="yes"/>
      <point x="354" y="485"/>
      <point x="339" y="459"/>
      <point x="308" y="434" type="curve" smooth="yes"/>
      <point x="277" y="410"/>
      <point x="242" y="396"/>
      <point x="202" y="393" type="curve"/>
      <point x="229" y="333" type="line"/>
      <point x="254" y="342"/>
      <point x="276" y="346"/>
      <point x="296" y="346" type="curve" smooth="yes"/>
      <point x="327" y="346"/>
      <point x="353" y="334"/>
      <point x="375" y="309" type="curve" smooth="yes"/>
      <point x="398" y="284"/>
      <point x="409" y="254"/>
      <point x="409" y="218" type="curve" smooth="yes"/>
      <point x="409" y="159"/>
      <point x="364" y="113"/>
      <point x="309" y="113" type="curve" smooth="yes"/>
      <point x="222" y="113"/>
      <point x="136" y="192"/>
      <point x="72" y="328" type="curve"/>
      <point x="23" y="300" type="line"/>
      <point x="98" y="140"/>
      <point x="202" y="47"/>
      <point x="309" y="47" type="curve" smooth="yes"/>
    </contour>
  </outline>
</glyph>
<glyph name="aa-deva" format="1">
  <advance width="1035"/>
  <unicode hex="0906"/>
  <outline>
    <contour>
      <point x="482" y="627" type="line"/>
      <point x="482" y="583" type="line"/>
      <point x="552" y="583" type="line"/>
      <point x="552" y="0" type="line"/>
      <point x="639" y="0" type="line"/>
      <point x="639" y="583" type="line"/>
      <point x="820" y="583" type="line"/>
      <point x="820" y="0" type="line"/>
      <point x="907" y="0" type="line"/>
      <point x="907" y="583" type="line"/>
      <point x="999" y="583" type="line"/>
      <point x="999" y="627" type="line"/>
    </contour>
    <contour>
      <point x="72" y="154"/>
      <point x="145" y="66"/>
      <point x="258" y="66" type="curve" smooth="yes"/>
      <point x="369" y="66"/>
      <point x="442" y="136"/>
      <point x="442" y="216" type="curve" smooth="yes"/>
      <point x="442" y="319"/>
      <point x="360" y="370"/>
      <point x="246" y="370" type="curve"/>
      <point x="165" y="368" type="line"/>
      <point x="165" y="334" type="line"/>
      <point x="221" y="345" type="line"/>
      <point x="334" y="345"/>
      <point x="352" y="276"/>
      <point x="352" y="223" type="curve" smooth="yes"/>
      <point x="352" y="163"/>
      <point x="310" y="116"/>
      <point x="245" y="116" type="curve" smooth="yes"/>
      <point x="180" y="116"/>
      <point x="109" y="168"/>
      <point x="75" y="286" type="curve"/>
      <point x="35" y="274" type="line"/>
    </contour>
    <contour>
      <point x="227" y="609"/>
      <point x="275" y="609" type="curve" smooth="yes"/>
      <point x="336" y="609"/>
      <point x="365" y="574"/>
      <point x="365" y="513" type="curve" smooth="yes"/>
      <point x="365" y="435"/>
      <point x="304" y="374"/>
      <point x="212" y="374" type="curve" smooth="yes"/>
      <point x="165" y="374" type="line"/>
      <point x="165" y="334" type="line"/>
      <point x="208" y="334" type="line"/>
      <point x="337" y="335"/>
      <point x="444" y="412"/>
      <point x="444" y="514" type="curve" smooth="yes"/>
      <point x="444" y="605"/>
      <point x="373" y="647"/>
      <point x="287" y="647" type="curve" smooth="yes"/>
      <point x="210" y="647"/>
      <point x="146" y="619"/>
      <point x="98" y="568" type="curve"/>
      <point x="127" y="541" type="line"/>
      <point x="175" y="590"/>
    </contour>
    <contour>
      <point x="337" y="320" type="line"/>
      <point x="403" y="258"/>
      <point x="540" y="261"/>
      <point x="590" y="395" type="curve"/>
      <point x="560" y="408" type="line"/>
      <point x="511" y="320"/>
      <point x="431" y="306"/>
      <point x="354" y="350" type="curve"/>
    </contour>
    <contour>
      <point x="785" y="664" type="move" name="mark0"/>
    </contour>
  </outline>
</glyph>
<glyph name="ii-deva" format="1">
  <advance width="510"/>
  <unicode hex="0908"/>
  <outline>
    <contour>
      <point x="455" y="-100" type="line"/>
      <point x="375" y="-72"/>
      <point x="317" y="-28"/>
      <point x="296" y="20" type="curve"/>
      <point x="342" y="20"/>
      <point x="381" y="39"/>
      <point x="413" y="78" type="curve" smooth="yes"/>
      <point x="446" y="117"/>
      <point x="462" y="165"/>
      <point x="462" y="220" type="curve" smooth="yes"/>
      <point x="462" y="251"/>
      <point x="452" y="277"/>
      <point x="432" y="299" type="curve"/>
      <point x="413" y="322"/>
      <point x="389" y="333"/>
      <point x="362" y="333" type="curve" smooth="yes"/>
      <point x="346" y="333"/>
      <point x="323" y="328"/>
      <point x="296" y="317" type="curve"/>
      <point x="265" y="306"/>
      <point x="244" y="300"/>
      <point x="229" y="300" type="curve" smooth="yes"/>
      <point x="215" y="300"/>
      <point x="194" y="314"/>
      <point x="165" y="342" type="curve"/>
      <point x="137" y="371"/>
      <point x="123" y="392"/>
      <point x="123" y="406" type="curve" smooth="yes"/>
      <point x="123" y="421"/>
      <point x="141" y="433"/>
      <point x="162" y="433" type="curve" smooth="yes"/>
      <point x="402" y="433" type="line"/>
      <point x="402" y="606" type="line"/>
      <point x="523" y="606" type="line"/>
      <point x="523" y="666" type="line"/>
      <point x="398" y="666" type="line"/>
      <point x="347" y="699"/>
      <point x="316" y="750"/>
      <point x="316" y="799" type="curve" smooth="yes"/>
      <point x="316" y="851"/>
      <point x="357" y="892"/>
      <point x="409" y="892" type="curve" smooth="yes"/>
      <point x="421" y="892"/>
      <point x="445" y="887"/>
      <point x="482" y="872" type="curve"/>
      <point x="482" y="932" type="line"/>
      <point x="457" y="941"/>
      <point x="433" y="945"/>
      <point x="409" y="945" type="curve" smooth="yes"/>
      <point x="364" y="945"/>
      <point x="326" y="931"/>
      <point x="295" y="902" type="curve" smooth="yes"/>
      <point x="264" y="874"/>
      <point x="249" y="840"/>
      <point x="249" y="799" type="curve" smooth="yes"/>
      <point x="249" y="755"/>
      <point x="274" y="706"/>
      <point x="321" y="666" type="curve"/>
      <point x="-13" y="666" type="line"/>
      <point x="-13" y="606" type="line"/>
      <point x="336" y="606" type="line"/>
      <point x="336" y="499" type="line"/>
      <point x="162" y="499" type="line" smooth="yes"/>
      <point x="101" y="499"/>
      <point x="49" y="458"/>
      <point x="49" y="406" type="curve" smooth="yes"/>
      <point x="49" y="378"/>
      <point x="72" y="342"/>
      <point x="117" y="298" type="curve" smooth="yes"/>
      <point x="162" y="255"/>
      <point x="200" y="233"/>
      <point x="229" y="233" type="curve" smooth="yes"/>
      <point x="249" y="233"/>
      <point x="274" y="241"/>
      <point x="302" y="253" type="curve" smooth="yes"/>
      <point x="322" y="262"/>
      <point x="341" y="266"/>
      <point x="362" y="266" type="curve" smooth="yes"/>
      <point x="381" y="266"/>
      <point x="395" y="244"/>
      <point x="395" y="220" type="curve" smooth="yes"/>
      <point x="395" y="180"/>
      <point x="381" y="145"/>
      <point x="352" y="116" type="curve" smooth="yes"/>
      <point x="323" y="87"/>
      <point x="289" y="73"/>
      <point x="249" y="73" type="curve"/>
      <point x="213" y="136"/>
      <point x="161" y="173"/>
      <point x="109" y="173" type="curve" smooth="yes"/>
      <point x="72" y="173"/>
      <point x="43" y="143"/>
      <point x="43" y="107" type="curve" smooth="yes"/>
      <point x="43" y="83"/>
      <point x="58" y="62"/>
      <point x="89" y="45" type="curve" smooth="yes"/>
      <point x="120" y="28"/>
      <point x="158" y="20"/>
      <point x="202" y="20" type="curve"/>
      <point x="247" y="-43"/>
      <point x="320" y="-105"/>
      <point x="415" y="-160" type="curve"/>
    </contour>
    <contour>
      <point x="439" y="579" type="move" name="mark0"/>
    </contour>
  </outline>
</glyph>
<glyph name="u-deva" format="1">
  <advance width="631"/>
  <unicode hex="0909"/>
  <outline>
    <contour>
      <point x="415" y="606" type="line"/>
      <point x="452" y="575"/>
      <point x="475" y="536"/>
      <point x="475" y="499" type="curve" smooth="yes"/>
      <point x="475" y="444"/>
      <point x="434" y="399"/>
      <point x="382" y="399" type="curve" smooth="yes"/>
      <point x="236" y="399" type="line"/>
      <point x="262" y="340" type="line"/>
      <point x="395" y="340" type="line" smooth="yes"/>
      <point x="424" y="340"/>
      <point x="449" y="327"/>
      <point x="470" y="300" type="curve" smooth="yes"/>
      <point x="491" y="274"/>
      <point x="502" y="243"/>
      <point x="502" y="206" type="curve" smooth="yes"/>
      <point x="502" y="173"/>
      <point x="491" y="145"/>
      <point x="468" y="122" type="curve" smooth="yes"/>
      <point x="446" y="99"/>
      <point x="420" y="87"/>
      <point x="389" y="87" type="curve" smooth="yes"/>
      <point x="277" y="87"/>
      <point x="162" y="222"/>
      <point x="77" y="457" type="curve"/>
      <point x="23" y="433" type="line"/>
      <point x="119" y="172"/>
      <point x="252" y="20"/>
      <point x="389" y="20" type="curve" smooth="yes"/>
      <point x="438" y="20"/>
      <point x="481" y="38"/>
      <point x="516" y="74" type="curve" smooth="yes"/>
      <point x="551" y="111"/>
      <point x="569" y="155"/>
      <point x="569" y="206" type="curve" smooth="yes"/>
      <point x="569" y="283"/>
      <point x="532" y="347"/>
      <point x="475" y="366" type="curve"/>
      <point x="516" y="390"/>
      <point x="542" y="440"/>
      <point x="542" y="499" type="curve" smooth="yes"/>
      <point x="542" y="536"/>
      <point x="529" y="575"/>
      <point x="502" y="606" type="curve"/>
      <point x="644" y="606" type="line"/>
      <point x="644" y="666" type="line"/>
      <point x="-13" y="666" type="line"/>
      <point x="-13" y="606" type="line"/>
    </contour>
    <contour>
      <point x="461" y="664" type="move" name="mark0"/>
    </contour>
  </outline>
</glyph>
<glyph name="uu-deva" format="1">
  <advance width="921"/>
  <unicode hex="090A"/>
  <outline>
    <contour>
      <point x="406" y="606" type="line"/>
      <point x="447" y="570"/>
      <point x="471" y="531"/>
      <point x="471" y="499" type="curve" smooth="yes"/>
      <point x="471" y="444"/>
      <point x="425" y="399"/>
      <point x="366" y="399" type="curve" smooth="yes"/>
      <point x="233" y="399" type="line"/>
      <point x="260" y="340" type="line"/>
      <point x="380" y="340" type="line" smooth="yes"/>
      <point x="413" y="340"/>
      <point x="441" y="328"/>
      <point x="464" y="304" type="curve" smooth="yes"/>
      <point x="487" y="281"/>
      <point x="499" y="253"/>
      <point x="499" y="220" type="curve" smooth="yes"/>
      <point x="499" y="183"/>
      <point x="487" y="152"/>
      <point x="464" y="126" type="curve" smooth="yes"/>
      <point x="441" y="100"/>
      <point x="413" y="87"/>
      <point x="380" y="87" type="curve" smooth="yes"/>
      <point x="324" y="87"/>
      <point x="269" y="123"/>
      <point x="214" y="194" type="curve" smooth="yes"/>
      <point x="159" y="266"/>
      <point x="117" y="359"/>
      <point x="87" y="473" type="curve"/>
      <point x="27" y="446" type="line"/>
      <point x="60" y="320"/>
      <point x="110" y="217"/>
      <point x="175" y="138" type="curve" smooth="yes"/>
      <point x="241" y="59"/>
      <point x="309" y="20"/>
      <point x="380" y="20" type="curve" smooth="yes"/>
      <point x="424" y="20"/>
      <point x="463" y="34"/>
      <point x="497" y="61" type="curve" smooth="yes"/>
      <point x="532" y="89"/>
      <point x="552" y="124"/>
      <point x="559" y="166" type="curve" smooth="yes"/>
      <point x="569" y="222"/>
      <point x="588" y="268"/>
      <point x="615" y="305" type="curve" smooth="yes"/>
      <point x="642" y="342"/>
      <point x="673" y="360"/>
      <point x="706" y="360" type="curve" smooth="yes"/>
      <point x="765" y="360"/>
      <point x="812" y="315"/>
      <point x="812" y="260" type="curve" smooth="yes"/>
      <point x="812" y="187"/>
      <point x="778" y="121"/>
      <point x="722" y="89" type="curve"/>
      <point x="766" y="40" type="line"/>
      <point x="837" y="89"/>
      <point x="879" y="171"/>
      <point x="879" y="260" type="curve" smooth="yes"/>
      <point x="879" y="304"/>
      <point x="862" y="341"/>
      <point x="828" y="372" type="curve" smooth="yes"/>
      <point x="795" y="403"/>
      <point x="754" y="419"/>
      <point x="706" y="419" type="curve" smooth="yes"/>
      <point x="637" y="419"/>
      <point x="573" y="371"/>
      <point x="542" y="298" type="curve"/>
      <point x="537" y="325"/>
      <point x="509" y="353"/>
      <point x="466" y="373" type="curve"/>
      <point x="510" y="389"/>
      <point x="539" y="439"/>
      <point x="539" y="499" type="curve" smooth="yes"/>
      <point x="539" y="535"/>
      <point x="524" y="573"/>
      <point x="495" y="606" type="curve"/>
      <point x="935" y="606" type="line"/>
      <point x="935" y="666" type="line"/>
      <point x="-13" y="666" type="line"/>
      <point x="-13" y="606" type="line"/>
    </contour>
    <contour>
      <point x="453" y="664" type="move" name="mark0"/>
    </contour>
  </outline>
</glyph>
<glyph name="lVocalic-deva" format="1">
  <advance width="703"/>
  <unicode hex="090C"/>
  <outline>
    <contour>
      <point x="277" y="53" type="line"/>
      <point x="176" y="96"/>
      <point x="111" y="179"/>
      <point x="111" y="266" type="curve" smooth="yes"/>
      <point x="111" y="301"/>
      <point x="121" y="330"/>
      <point x="140" y="355" type="curve" smooth="yes"/>
      <point x="159" y="380"/>
      <point x="183" y="393"/>
      <point x="210" y="393" type="curve" smooth="yes"/>
      <point x="251" y="393"/>
      <point x="292" y="367"/>
      <point x="317" y="326" type="curve"/>
      <point x="302" y="297"/>
      <point x="291" y="265"/>
      <point x="284" y="233" type="curve"/>
      <point x="350" y="213" type="line"/>
      <point x="363" y="266"/>
      <point x="381" y="309"/>
      <point x="404" y="342" type="curve" smooth="yes"/>
      <point x="427" y="376"/>
      <point x="452" y="393"/>
      <point x="477" y="393" type="curve" smooth="yes"/>
      <point x="508" y="393"/>
      <point x="534" y="378"/>
      <point x="556" y="348" type="curve"/>
      <point x="579" y="319"/>
      <point x="590" y="283"/>
      <point x="590" y="240" type="curve" smooth="yes"/>
      <point x="590" y="165"/>
      <point x="545" y="104"/>
      <point x="485" y="93" type="curve" smooth="yes"/>
      <point x="444" y="86"/>
      <point x="410" y="68"/>
      <point x="383" y="37" type="curve" smooth="yes"/>
      <point x="357" y="7"/>
      <point x="344" y="-28"/>
      <point x="344" y="-67" type="curve" smooth="yes"/>
      <point x="344" y="-109"/>
      <point x="360" y="-145"/>
      <point x="392" y="-175" type="curve" smooth="yes"/>
      <point x="425" y="-205"/>
      <point x="464" y="-220"/>
      <point x="510" y="-220" type="curve" smooth="yes"/>
      <point x="569" y="-220"/>
      <point x="620" y="-207"/>
      <point x="656" y="-180" type="curve"/>
      <point x="637" y="-120" type="line"/>
      <point x="606" y="-141"/>
      <point x="562" y="-153"/>
      <point x="510" y="-153" type="curve" smooth="yes"/>
      <point x="455" y="-153"/>
      <point x="410" y="-115"/>
      <point x="410" y="-67" type="curve" smooth="yes"/>
      <point x="410" y="-19"/>
      <point x="451" y="25"/>
      <point x="510" y="40" type="curve" smooth="yes"/>
      <point x="553" y="51"/>
      <point x="588" y="75"/>
      <point x="615" y="112" type="curve" smooth="yes"/>
      <point x="642" y="149"/>
      <point x="656" y="192"/>
      <point x="656" y="240" type="curve" smooth="yes"/>
      <point x="656" y="293"/>
      <point x="644" y="340"/>
      <point x="619" y="380" type="curve"/>
      <point x="595" y="421"/>
      <point x="563" y="447"/>
      <point x="523" y="459" type="curve"/>
      <point x="523" y="606" type="line"/>
      <point x="716" y="606" type="line"/>
      <point x="716" y="666" type="line"/>
      <point x="-13" y="666" type="line"/>
      <point x="-13" y="606" type="line"/>
      <point x="457" y="606" type="line"/>
      <point x="457" y="459" type="line"/>
      <point x="410" y="448"/>
      <point x="371" y="420"/>
      <point x="344" y="380" type="curve"/>
      <point x="308" y="429"/>
      <point x="258" y="459"/>
      <point x="210" y="459" type="curve" smooth="yes"/>
      <point x="164" y="459"/>
      <point x="125" y="440"/>
      <point x="92" y="402" type="curve" smooth="yes"/>
      <point x="60" y="365"/>
      <point x="44" y="319"/>
      <point x="44" y="266" type="curve" smooth="yes"/>
      <point x="44" y="212"/>
      <point x="63" y="161"/>
      <point x="100" y="112" type="curve"/>
      <point x="138" y="64"/>
      <point x="188" y="27"/>
      <point x="250" y="0" type="curve"/>
    </contour>
  </outline>
</glyph>
<glyph name="e-deva" format="1">
  <advance width="486"/>
  <unicode hex="090F"/>
  <outline>
    <contour>
      <point x="60" y="606" type="line"/>
      <point x="60" y="350" type="line" smooth="yes"/>
      <point x="60" y="306"/>
      <point x="75" y="264"/>
      <point x="100" y="240" type="curve" smooth="yes"/>
      <point x="346" y="13" type="line" smooth="yes"/>
      <point x="365" y="-4"/>
      <point x="373" y="-21"/>
      <point x="373" y="-33" type="curve" smooth="yes"/>
      <point x="373" y="-54"/>
      <point x="349" y="-75"/>
      <point x="313" y="-80" type="curve"/>
      <point x="366" y="-127" type="line"/>
      <point x="414" y="-108"/>
      <point x="446" y="-73"/>
      <point x="446" y="-33" type="curve" smooth="yes"/>
      <point x="446" y="-10"/>
      <point x="426" y="18"/>
      <point x="393" y="47" type="curve"/>
      <point x="160" y="266" type="line"/>
      <point x="139" y="287"/>
      <point x="127" y="320"/>
      <point x="127" y="353" type="curve" smooth="yes"/>
      <point x="127" y="606" type="line"/>
      <point x="353" y="606" type="line"/>
      <point x="353" y="413" type="line" smooth="yes"/>
      <point x="353" y="364"/>
      <point x="332" y="322"/>
      <point x="300" y="313" type="curve"/>
      <point x="340" y="266" type="line"/>
      <point x="388" y="279"/>
      <point x="419" y="339"/>
      <point x="419" y="411" type="curve" smooth="yes"/>
      <point x="419" y="606" type="line"/>
      <point x="499" y="606" type="line"/>
      <point x="499" y="666" type="line"/>
      <point x="-13" y="666" type="line"/>
      <point x="-13" y="606" type="line"/>
    </contour>
    <contour>
      <point x="265" y="664" type="move" name="mark0"/>
    </contour>
  </outline>
</glyph>
<glyph name="ai-deva" format="1">
  <advance width="491"/>
  <unicode hex="0910"/>
  <outline>
    <contour>
      <point x="59" y="606" type="line"/>
      <point x="59" y="341" type="line" smooth="yes"/>
      <point x="59" y="304"/>
      <point x="82" y="265"/>
      <point x="119" y="233" type="curve"/>
      <point x="338" y="27" type="line"/>
      <point x="362" y="3"/>
      <point x="376" y="-20"/>
      <point x="376" y="-33" type="curve" smooth="yes"/>
      <point x="376" y="-54"/>
      <point x="349" y="-73"/>
      <point x="312" y="-80" type="curve"/>
      <point x="365" y="-127" type="line"/>
      <point x="413" y="-108"/>
      <point x="445" y="-73"/>
      <point x="445" y="-33" type="curve" smooth="yes"/>
      <point x="445" y="-12"/>
      <point x="429" y="16"/>
      <point x="398" y="47" type="curve"/>
      <point x="178" y="253" type="line"/>
      <point x="145" y="286"/>
      <point x="125" y="319"/>
      <point x="125" y="340" type="curve" smooth="yes"/>
      <point x="125" y="606" type="line"/>
      <point x="365" y="606" type="line"/>
      <point x="365" y="415" type="line" smooth="yes"/>
      <point x="365" y="382"/>
      <point x="342" y="345"/>
      <point x="305" y="313" type="curve"/>
      <point x="345" y="260" type="line"/>
      <point x="400" y="297"/>
      <point x="431" y="354"/>
      <point x="431" y="413" type="curve" smooth="yes"/>
      <point x="431" y="606" type="line"/>
      <point x="505" y="606" type="line"/>
      <point x="505" y="666" type="line"/>
      <point x="426" y="666" type="line"/>
      <point x="212" y="945" type="line"/>
      <point x="152" y="892" type="line"/>
      <point x="352" y="666" type="line"/>
      <point x="-13" y="666" type="line"/>
      <point x="-13" y="606" type="line"/>
    </contour>
  </outline>
</glyph>
<glyph name="nga-deva" format="1">
  <advance width="712"/>
  <unicode hex="0919"/>
  <outline>
    <contour>
      <point x="569" y="450" type="line"/>
      <point x="569" y="583" type="line"/>
      <point x="712" y="583" type="line"/>
      <point x="712" y="627" type="line"/>
      <point x="0" y="627" type="line"/>
      <point x="0" y="583" type="line"/>
      <point x="482" y="583" type="line"/>
      <point x="482" y="494" type="line"/>
      <point x="373" y="494" type="line" smooth="yes"/>
      <point x="268" y="494"/>
      <point x="202" y="456"/>
      <point x="202" y="373" type="curve" smooth="yes"/>
      <point x="202" y="288"/>
      <point x="264" y="241"/>
      <point x="323" y="210" type="curve"/>
      <point x="367" y="221"/>
      <point x="403" y="226"/>
      <point x="433" y="226" type="curve" smooth="yes"/>
      <point x="478" y="226"/>
      <point x="511" y="194"/>
      <point x="511" y="141" type="curve" smooth="yes"/>
      <point x="511" y="69"/>
      <point x="452" y="22"/>
      <point x="371" y="22" type="curve" smooth="yes"/>
      <point x="281" y="22"/>
      <point x="208" y="52"/>
      <point x="162" y="160" type="curve"/>
      <point x="130" y="153" type="line"/>
      <point x="167" y="34"/>
      <point x="263" y="-16"/>
      <point x="381" y="-16" type="curve" smooth="yes"/>
      <point x="468" y="-16"/>
      <point x="593" y="33"/>
      <point x="592" y="156" type="curve" smooth="yes"/>
      <point x="591" y="232"/>
      <point x="540" y="304"/>
      <point x="447" y="304" type="curve" smooth="yes"/>
      <point x="416" y="304"/>
      <point x="380" y="299"/>
      <point x="339" y="289" type="curve"/>
      <point x="300" y="314"/>
      <point x="278" y="341"/>
      <point x="278" y="388" type="curve" smooth="yes"/>
      <point x="278" y="425"/>
      <point x="302" y="450"/>
      <point x="367" y="450" type="curve" smooth="yes"/>
    </contour>
    <component base="periodcentered" xOffset="493" yOffset="26"/>
    <contour>
      <point x="499" y="664" type="move" name="mark0"/>
    </contour>
    <contour>
      <point x="229" y="500" type="move" name="top"/>
    </contour>
    <contour>
      <point x="278" y="0" type="move" name="bottom"/>
    </contour>
  </outline>
</glyph>
<glyph name="ca-deva" format="1">
  <advance width="684"/>
  <unicode hex="091A"/>
  <outline>
    <contour>
      <point x="0" y="627" type="line"/>
      <point x="684" y="627" type="line"/>
      <point x="684" y="583" type="line"/>
      <point x="555" y="583" type="line"/>
      <point x="555" y="0" type="line"/>
      <point x="468" y="0" type="line"/>
      <point x="468" y="583" type="line"/>
      <point x="0" y="583" type="line"/>
    </contour>
    <contour>
      <point x="435" y="121"/>
      <point x="387" y="110"/>
      <point x="343" y="110" type="curve" smooth="yes"/>
      <point x="261" y="110"/>
      <point x="167" y="175"/>
      <point x="167" y="293" type="curve" smooth="yes"/>
      <point x="167" y="423"/>
      <point x="284" y="483"/>
      <point x="358" y="483" type="curve"/>
      <point x="358" y="464" type="line"/>
      <point x="305" y="464"/>
      <point x="264" y="417"/>
      <point x="264" y="318" type="curve" smooth="yes"/>
      <point x="264" y="197"/>
      <point x="326" y="154"/>
      <point x="383" y="154" type="curve" smooth="yes"/>
      <point x="409" y="154"/>
      <point x="446" y="162"/>
      <point x="468" y="177" type="curve"/>
      <point x="468" y="145" type="line"/>
    </contour>
    <contour>
      <point x="90" y="464" type="line"/>
      <point x="90" y="508" type="line"/>
      <point x="413" y="508" type="line"/>
      <point x="413" y="464" type="line"/>
    </contour>
    <contour>
      <point x="503" y="664" type="move" name="mark0"/>
    </contour>
  </outline>
</glyph>
<glyph name="cha-deva" format="1">
  <advance width="693"/>
  <unicode hex="091B"/>
  <outline>
    <contour>
      <point x="0" y="627" type="line"/>
      <point x="0" y="583" type="line"/>
      <point x="478" y="583" type="line"/>
      <point x="478" y="481" type="line"/>
      <point x="565" y="481" type="line"/>
      <point x="565" y="583" type="line"/>
      <point x="693" y="583" type="line"/>
      <point x="693" y="627" type="line"/>
    </contour>
    <contour>
      <point x="200" y="394" type="line" smooth="yes"/>
      <point x="152" y="394"/>
      <point x="120" y="428"/>
      <point x="120" y="488" type="curve" smooth="yes"/>
      <point x="120" y="540"/>
      <point x="143" y="583"/>
      <point x="208" y="583" type="curve"/>
      <point x="208" y="617" type="line"/>
      <point x="104" y="617"/>
      <point x="39" y="572"/>
      <point x="39" y="493" type="curve" smooth="yes"/>
      <point x="39" y="424"/>
      <point x="87" y="354"/>
      <point x="219" y="354" type="curve" smooth="yes"/>
      <point x="281" y="354" type="line"/>
      <point x="281" y="394" type="line"/>
    </contour>
    <contour>
      <point x="580" y="211" type="line"/>
      <point x="509" y="215"/>
      <point x="448" y="291"/>
      <point x="448" y="366" type="curve" smooth="yes"/>
      <point x="448" y="414"/>
      <point x="468" y="467"/>
      <point x="518" y="467" type="curve" smooth="yes"/>
      <point x="568" y="467"/>
      <point x="587" y="411"/>
      <point x="587" y="346" type="curve" smooth="yes"/>
      <point x="587" y="170"/>
      <point x="483" y="73"/>
      <point x="321" y="73" type="curve" smooth="yes"/>
      <point x="204" y="73"/>
      <point x="150" y="147"/>
      <point x="150" y="232" type="curve" smooth="yes"/>
      <point x="150" y="290"/>
      <point x="172" y="354"/>
      <point x="216" y="354" type="curve"/>
      <point x="216" y="382" type="line"/>
      <point x="122" y="382"/>
      <point x="60" y="320"/>
      <point x="60" y="226" type="curve" smooth="yes"/>
      <point x="60" y="100"/>
      <point x="171" y="33"/>
      <point x="310" y="33" type="curve" smooth="yes"/>
      <point x="532" y="33"/>
      <point x="659" y="187"/>
      <point x="659" y="344" type="curve" smooth="yes"/>
      <point x="659" y="435"/>
      <point x="596" y="493"/>
      <point x="518" y="493" type="curve" smooth="yes"/>
      <point x="437" y="493"/>
      <point x="375" y="436"/>
      <point x="375" y="354" type="curve" smooth="yes"/>
      <point x="375" y="253"/>
      <point x="469" y="193"/>
      <point x="557" y="184" type="curve"/>
    </contour>
    <contour>
      <point x="526" y="664" type="move" name="mark0"/>
    </contour>
  </outline>
</glyph>
<glyph name="jha-deva" format="1">
  <advance width="776"/>
  <unicode hex="091D"/>
  <outline>
    <contour>
      <point x="0" y="627" type="line"/>
      <point x="0" y="583" type="line"/>
      <point x="382" y="583" type="line"/>
      <point x="382" y="494" type="line"/>
      <point x="261" y="494" type="line" smooth="yes"/>
      <point x="156" y="494"/>
      <point x="102" y="447"/>
      <point x="102" y="371" type="curve" smooth="yes"/>
      <point x="102" y="289"/>
      <point x="164" y="241"/>
      <point x="223" y="210" type="curve"/>
      <point x="267" y="221"/>
      <point x="293" y="226"/>
      <point x="319" y="226" type="curve" smooth="yes"/>
      <point x="380" y="226"/>
      <point x="411" y="197"/>
      <point x="411" y="139" type="curve" smooth="yes"/>
      <point x="411" y="72"/>
      <point x="369" y="22"/>
      <point x="264" y="22" type="curve" smooth="yes"/>
      <point x="181" y="22"/>
      <point x="108" y="52"/>
      <point x="62" y="160" type="curve"/>
      <point x="30" y="153" type="line"/>
      <point x="67" y="34"/>
      <point x="163" y="-16"/>
      <point x="271" y="-16" type="curve" smooth="yes"/>
      <point x="379" y="-16"/>
      <point x="492" y="33"/>
      <point x="492" y="156" type="curve" smooth="yes"/>
      <point x="492" y="242"/>
      <point x="439" y="304"/>
      <point x="337" y="304" type="curve" smooth="yes"/>
      <point x="307" y="304"/>
      <point x="280" y="299"/>
      <point x="239" y="289" type="curve"/>
      <point x="200" y="314"/>
      <point x="178" y="349"/>
      <point x="178" y="388" type="curve" smooth="yes"/>
      <point x="178" y="432"/>
      <point x="206" y="450"/>
      <point x="267" y="450" type="curve" smooth="yes"/>
      <point x="469" y="450" type="line"/>
      <point x="469" y="583" type="line"/>
      <point x="776" y="583" type="line"/>
      <point x="776" y="627" type="line"/>
    </contour>
    <contour>
      <point x="575" y="593" type="line"/>
      <point x="575" y="0" type="line"/>
      <point x="662" y="0" type="line"/>
      <point x="662" y="593" type="line"/>
    </contour>
    <contour>
      <point x="600" y="664" type="move" name="mark0"/>
    </contour>
  </outline>
</glyph>
<glyph name="nya-deva" format="1">
  <advance width="756"/>
  <unicode hex="091E"/>
  <outline>
    <contour>
      <point x="267" y="486"/>
      <point x="222" y="475"/>
      <point x="186" y="451" type="curve"/>
      <point x="186" y="419" type="line"/>
      <point x="208" y="434"/>
      <point x="235" y="442"/>
      <point x="263" y="442" type="curve" smooth="yes"/>
      <point x="328" y="442"/>
      <point x="390" y="399"/>
      <point x="390" y="293" type="curve" smooth="yes"/>
      <point x="390" y="199"/>
      <point x="351" y="152"/>
      <point x="280" y="152" type="curve" smooth="yes"/>
      <point x="207" y="152"/>
      <point x="147" y="202"/>
      <point x="91" y="288" type="curve"/>
      <point x="60" y="269" type="line"/>
      <point x="122" y="161"/>
      <point x="206" y="110"/>
      <point x="290" y="110" type="curve" smooth="yes"/>
      <point x="385" y="110"/>
      <point x="487" y="177"/>
      <point x="487" y="309" type="curve" smooth="yes"/>
      <point x="487" y="421"/>
      <point x="393" y="486"/>
      <point x="304" y="486" type="curve" smooth="yes"/>
    </contour>
    <contour>
      <point x="403" y="287" type="line"/>
      <point x="470" y="261"/>
      <point x="529" y="262"/>
      <point x="602" y="294" type="curve"/>
      <point x="589" y="336" type="line"/>
      <point x="529" y="310"/>
      <point x="474" y="303"/>
      <point x="403" y="336" type="curve"/>
    </contour>
    <contour>
      <point x="568" y="626" type="line"/>
      <point x="568" y="0" type="line"/>
      <point x="655" y="0" type="line"/>
      <point x="655" y="626" type="line"/>
    </contour>
    <contour>
      <point x="0" y="627" type="line"/>
      <point x="0" y="583" type="line"/>
      <point x="756" y="583" type="line"/>
      <point x="756" y="627" type="line"/>
    </contour>
    <contour>
      <point x="603" y="664" type="move" name="mark0"/>
    </contour>
  </outline>
</glyph>
<glyph name="tta-deva" format="1">
  <advance width="594"/>
  <unicode hex="091F"/>
  <outline>
    <contour>
      <point x="0" y="627" type="line"/>
      <point x="0" y="583" type="line"/>
      <point x="378" y="583" type="line"/>
      <point x="378" y="479" type="line"/>
      <point x="305" y="479" type="line" smooth="yes"/>
      <point x="204" y="479"/>
      <point x="67" y="393"/>
      <point x="67" y="250" type="curve" smooth="yes"/>
      <point x="67" y="122"/>
      <point x="151" y="-2"/>
      <point x="301" y="-2" type="curve" smooth="yes"/>
      <point x="367" y="-2"/>
      <point x="416" y="19"/>
      <point x="466" y="60" type="curve"/>
      <point x="451" y="100" type="line"/>
      <point x="404" y="63"/>
      <point x="359" y="46"/>
      <point x="318" y="46" type="curve" smooth="yes"/>
      <point x="227" y="46"/>
      <point x="165" y="144"/>
      <point x="166" y="282" type="curve" smooth="yes"/>
      <point x="167" y="394"/>
      <point x="213" y="435"/>
      <point x="295" y="435" type="curve" smooth="yes"/>
      <point x="465" y="435" type="line"/>
      <point x="465" y="583" type="line"/>
      <point x="594" y="583" type="line"/>
      <point x="594" y="627" type="line"/>
    </contour>
    <contour>
      <point x="421" y="664" type="move" name="mark0"/>
    </contour>
  </outline>
</glyph>
<glyph name="tha-deva" format="1">
  <advance width="685"/>
  <unicode hex="0925"/>
  <outline>
    <contour>
      <point x="453" y="627" type="line"/>
      <point x="453" y="583" type="line"/>
      <point x="509" y="583" type="line"/>
      <point x="509" y="0.00011013" type="line"/>
      <point x="596" y="0.00011013" type="line"/>
      <point x="596" y="583" type="line"/>
      <point x="699" y="583" type="line"/>
      <point x="699" y="627" type="line"/>
    </contour>
    <contour>
      <point x="509" y="234" type="line"/>
      <point x="467" y="188"/>
      <point x="400" y="165"/>
      <point x="338" y="165" type="curve" smooth="yes"/>
      <point x="237" y="165"/>
      <point x="177" y="226"/>
      <point x="151" y="300" type="curve"/>
      <point x="308" y="300"/>
      <point x="359" y="413"/>
      <point x="359" y="489" type="curve" smooth="yes"/>
      <point x="359" y="593"/>
      <point x="290" y="647"/>
      <point x="199" y="647" type="curve" smooth="yes"/>
      <point x="115" y="647"/>
      <point x="65" y="593"/>
      <point x="65" y="534" type="curve" smooth="yes"/>
      <point x="65" y="491"/>
      <point x="91" y="457"/>
      <point x="127" y="432" type="curve"/>
      <point x="143" y="457" type="line"/>
      <point x="121" y="475"/>
      <point x="110" y="500"/>
      <point x="110" y="528" type="curve" smooth="yes"/>
      <point x="110" y="579"/>
      <point x="145" y="612"/>
      <point x="193" y="612" type="curve" smooth="yes"/>
      <point x="242" y="612"/>
      <point x="278" y="578"/>
      <point x="278" y="503" type="curve" smooth="yes"/>
      <point x="278" y="411"/>
      <point x="245" y="339"/>
      <point x="70" y="339" type="curve"/>
      <point x="100" y="196"/>
      <point x="184" y="124"/>
      <point x="327" y="124" type="curve" smooth="yes"/>
      <point x="393" y="124"/>
      <point x="459" y="145"/>
      <point x="509" y="181" type="curve"/>
    </contour>
  </outline>
</glyph>
<glyph name="da-deva" format="1">
  <advance width="541"/>
  <unicode hex="0926"/>
  <outline>
    <contour>
      <point x="291" y="583" type="line"/>
      <point x="291" y="405" type="line"/>
      <point x="378" y="405" type="line"/>
      <point x="378" y="583" type="line"/>
      <point x="534" y="583" type="line"/>
      <point x="534" y="627" type="line"/>
      <point x="0" y="627" type="line"/>
      <point x="0" y="583" type="line"/>
    </contour>
    <contour>
      <point x="431" y="304" type="line"/>
      <point x="431" y="380"/>
      <point x="361" y="454"/>
      <point x="260" y="454" type="curve" smooth="yes"/>
      <point x="146" y="454"/>
      <point x="44" y="400"/>
      <point x="44" y="272" type="curve" smooth="yes"/>
      <point x="44" y="147"/>
      <point x="144" y="67"/>
      <point x="263" y="67" type="curve" smooth="yes"/>
      <point x="303" y="67"/>
      <point x="336" y="78"/>
      <point x="351" y="90" type="curve"/>
      <point x="351" y="123" type="line"/>
      <point x="326" y="113"/>
      <point x="301" y="109"/>
      <point x="279" y="109" type="curve" smooth="yes"/>
      <point x="188" y="109"/>
      <point x="127" y="167"/>
      <point x="127" y="257" type="curve" smooth="yes"/>
      <point x="127" y="349"/>
      <point x="195" y="393"/>
      <point x="268" y="393" type="curve" smooth="yes"/>
      <point x="344" y="393"/>
      <point x="382" y="340"/>
      <point x="382" y="290" type="curve"/>
    </contour>
    <contour>
      <point x="459" y="-22" type="line"/>
      <point x="404" y="19"/>
      <point x="377" y="53"/>
      <point x="361" y="101" type="curve"/>
      <point x="367" y="99"/>
      <point x="374" y="98"/>
      <point x="381" y="98" type="curve" smooth="yes"/>
      <point x="411" y="98"/>
      <point x="445" y="116"/>
      <point x="445" y="164" type="curve" smooth="yes"/>
      <point x="445" y="199"/>
      <point x="422" y="225"/>
      <point x="382" y="225" type="curve" smooth="yes"/>
      <point x="333" y="225"/>
      <point x="307" y="186"/>
      <point x="307" y="136" type="curve" smooth="yes"/>
      <point x="307" y="81"/>
      <point x="344" y="15"/>
      <point x="406" y="-44" type="curve"/>
    </contour>
    <contour>
      <point x="417" y="666" type="move" name="mark0"/>
    </contour>
  </outline>
</glyph>
<glyph name="la-deva" format="1">
  <advance width="727"/>
  <unicode hex="0932"/>
  <outline>
    <contour>
      <point x="561" y="606" type="line"/>
      <point x="561" y="466" type="line"/>
      <point x="502" y="466"/>
      <point x="447" y="438"/>
      <point x="407" y="393" type="curve"/>
      <point x="368" y="438"/>
      <point x="306" y="466"/>
      <point x="241" y="466" type="curve" smooth="yes"/>
      <point x="186" y="466"/>
      <point x="138" y="446"/>
      <point x="99" y="407" type="curve" smooth="yes"/>
      <point x="60" y="368"/>
      <point x="41" y="321"/>
      <point x="41" y="266" type="curve" smooth="yes"/>
      <point x="41" y="213"/>
      <point x="65" y="161"/>
      <point x="112" y="111" type="curve" smooth="yes"/>
      <point x="160" y="61"/>
      <point x="223" y="22"/>
      <point x="301" y="-7" type="curve"/>
      <point x="328" y="53" type="line"/>
      <point x="262" y="77"/>
      <point x="209" y="108"/>
      <point x="168" y="147" type="curve" smooth="yes"/>
      <point x="128" y="186"/>
      <point x="108" y="226"/>
      <point x="108" y="266" type="curve" smooth="yes"/>
      <point x="108" y="303"/>
      <point x="121" y="334"/>
      <point x="147" y="360" type="curve" smooth="yes"/>
      <point x="173" y="386"/>
      <point x="204" y="399"/>
      <point x="241" y="399" type="curve" smooth="yes"/>
      <point x="288" y="399"/>
      <point x="333" y="376"/>
      <point x="361" y="333" type="curve"/>
      <point x="344" y="312"/>
      <point x="328" y="276"/>
      <point x="321" y="233" type="curve"/>
      <point x="381" y="213" type="line"/>
      <point x="396" y="268"/>
      <point x="420" y="313"/>
      <point x="453" y="347" type="curve" smooth="yes"/>
      <point x="486" y="382"/>
      <point x="522" y="399"/>
      <point x="561" y="399" type="curve"/>
      <point x="561" y="0" type="line"/>
      <point x="627" y="0" type="line"/>
      <point x="627" y="606" type="line"/>
      <point x="740" y="606" type="line"/>
      <point x="740" y="666" type="line"/>
      <point x="-13" y="666" type="line"/>
      <point x="-13" y="606" type="line"/>
    </contour>
    <contour>
      <point x="597" y="664" type="move" name="mark0"/>
    </contour>
  </outline>
</glyph>
<glyph name="ooeMatra-deva" format="1">
  <advance width="266"/>
  <unicode hex="093B"/>
  <outline>
    <contour>
      <point x="100" y="606" type="line"/>
      <point x="100" y="0" type="line"/>
      <point x="166" y="0" type="line"/>
      <point x="166" y="606" type="line"/>
      <point x="280" y="606" type="line"/>
      <point x="280" y="666" type="line"/>
      <point x="163" y="666" type="line"/>
      <point x="162" y="821" type="line"/>
      <point x="100" y="821" type="line"/>
      <point x="100" y="666" type="line"/>
      <point x="-13" y="666" type="line"/>
      <point x="-13" y="606" type="line"/>
    </contour>
  </outline>
</glyph>
<glyph name="avagraha-deva" format="1">
  <advance width="442"/>
  <unicode hex="093D"/>
  <outline>
    <contour>
      <point x="288" y="5"/>
      <point x="324" y="23"/>
      <point x="353" y="60" type="curve" smooth="yes"/>
      <point x="383" y="97"/>
      <point x="398" y="141"/>
      <point x="398" y="192" type="curve" smooth="yes"/>
      <point x="398" y="228"/>
      <point x="389" y="263"/>
      <point x="370" y="296" type="curve" smooth="yes"/>
      <point x="351" y="329"/>
      <point x="325" y="356"/>
      <point x="292" y="378" type="curve" smooth="yes"/>
      <point x="213" y="430"/>
      <point x="165" y="487"/>
      <point x="165" y="530" type="curve" smooth="yes"/>
      <point x="165" y="561"/>
      <point x="198" y="585"/>
      <point x="238" y="585" type="curve" smooth="yes"/>
      <point x="398" y="585" type="line"/>
      <point x="398" y="652" type="line"/>
      <point x="238" y="652" type="line" smooth="yes"/>
      <point x="200" y="652"/>
      <point x="167" y="640"/>
      <point x="140" y="617" type="curve" smooth="yes"/>
      <point x="113" y="594"/>
      <point x="99" y="566"/>
      <point x="99" y="533" type="curve" smooth="yes"/>
      <point x="99" y="472"/>
      <point x="133" y="412"/>
      <point x="192" y="376" type="curve"/>
      <point x="279" y="319"/>
      <point x="332" y="251"/>
      <point x="332" y="192" type="curve" smooth="yes"/>
      <point x="332" y="128"/>
      <point x="293" y="77"/>
      <point x="245" y="77" type="curve" smooth="yes"/>
      <point x="181" y="77"/>
      <point x="116" y="145"/>
      <point x="85" y="246" type="curve"/>
      <point x="25" y="214" type="line"/>
      <point x="44" y="152"/>
      <point x="73" y="102"/>
      <point x="114" y="63" type="curve" smooth="yes"/>
      <point x="155" y="24"/>
      <point x="199" y="5"/>
      <point x="245" y="5" type="curve" smooth="yes"/>
    </contour>
  </outline>
</glyph>
<glyph name="iiMatra-deva" format="1">
  <advance width="273"/>
  <unicode hex="0940"/>
  <outline>
    <contour>
      <point x="0" y="627" type="line"/>
      <point x="0" y="583" type="line"/>
      <point x="88" y="583" type="line"/>
      <point x="88" y="0" type="line"/>
      <point x="175" y="0" type="line"/>
      <point x="175" y="583" type="line"/>
      <point x="273" y="583" type="line"/>
      <point x="273" y="627" type="line"/>
    </contour>
    <contour>
      <point x="-182" y="945"/>
      <point x="-292" y="837"/>
      <point x="-172" y="679" type="curve"/>
      <point x="-85" y="679" type="line"/>
      <point x="-190" y="819"/>
      <point x="-153" y="910"/>
      <point x="-80" y="910" type="curve" smooth="yes"/>
      <point x="41" y="910"/>
      <point x="88" y="767"/>
      <point x="88" y="622" type="curve"/>
      <point x="175" y="622" type="line"/>
      <point x="175" y="788"/>
      <point x="72" y="945"/>
      <point x="-80" y="945" type="curve" smooth="yes"/>
    </contour>
    <contour>
      <point x="263" y="55" type="move" name="mark0"/>
    </contour>
  </outline>
</glyph>
<glyph name="eShortMatra-deva" format="1">
  <advance width="0"/>
  <unicode hex="0946"/>
  <outline>
    <contour>
      <point x="-259" y="807"/>
      <point x="-228" y="793"/>
      <point x="-201" y="765" type="curve" smooth="yes"/>
      <point x="-175" y="738"/>
      <point x="-162" y="705"/>
      <point x="-162" y="667" type="curve"/>
      <point x="-96" y="667" type="line"/>
      <point x="-96" y="720"/>
      <point x="-115" y="766"/>
      <point x="-154" y="803" type="curve" smooth="yes"/>
      <point x="-193" y="841"/>
      <point x="-241" y="860"/>
      <point x="-296" y="860" type="curve" smooth="yes"/>
      <point x="-360" y="860"/>
      <point x="-416" y="914"/>
      <point x="-429" y="987" type="curve"/>
      <point x="-495" y="987" type="line"/>
      <point x="-486" y="934"/>
      <point x="-463" y="891"/>
      <point x="-425" y="857" type="curve" smooth="yes"/>
      <point x="-388" y="824"/>
      <point x="-345" y="807"/>
      <point x="-296" y="807" type="curve" smooth="yes"/>
    </contour>
    <contour>
      <point x="-127" y="665" type="move" name="_mark0"/>
    </contour>
  </outline>
</glyph>
<glyph name="oCandraMatra-deva" format="1">
  <advance width="266"/>
  <unicode hex="0949"/>
  <outline>
    <contour>
      <point x="-200" y="932" type="line"/>
      <point x="-191" y="880"/>
      <point x="-167" y="837"/>
      <point x="-129" y="803" type="curve" smooth="yes"/>
      <point x="-92" y="769"/>
      <point x="-49" y="752"/>
      <point x="0" y="752" type="curve" smooth="yes"/>
      <point x="49" y="752"/>
      <point x="92" y="769"/>
      <point x="129" y="803" type="curve" smooth="yes"/>
      <point x="167" y="837"/>
      <point x="191" y="880"/>
      <point x="200" y="932" type="curve"/>
      <point x="133" y="932" type="line"/>
      <point x="121" y="860"/>
      <point x="64" y="806"/>
      <point x="0" y="806" type="curve" smooth="yes"/>
      <point x="-64" y="806"/>
      <point x="-121" y="860"/>
      <point x="-133" y="932" type="curve"/>
    </contour>
    <contour>
      <point x="100" y="606" type="line"/>
      <point x="100" y="0" type="line"/>
      <point x="166" y="0" type="line"/>
      <point x="166" y="606" type="line"/>
      <point x="280" y="606" type="line"/>
      <point x="280" y="666" type="line"/>
      <point x="-13" y="666" type="line"/>
      <point x="-13" y="606" type="line"/>
    </contour>
  </outline>
</glyph>
<glyph name="udatta-deva" format="1">
  <advance width="0"/>
  <unicode hex="0951"/>
  <outline>
    <contour>
      <point x="-85" y="710" type="line"/>
      <point x="-85" y="1023" type="line"/>
      <point x="-172" y="1023" type="line"/>
      <point x="-172" y="710" type="line"/>
    </contour>
    <contour>
      <point x="-127" y="666" type="move" name="_mark0"/>
    </contour>
  </outline>
</glyph>
<glyph name="acute-deva" format="1">
  <advance width="0"/>
  <unicode hex="0954"/>
  <outline>
    <contour>
      <point x="-129" y="714" type="line"/>
      <point x="-37" y="925" type="line"/>
      <point x="-124" y="925" type="line"/>
      <point x="-178" y="714" type="line"/>
    </contour>
    <contour>
      <point x="-143" y="665" type="move" name="_mark0"/>
    </contour>
  </outline>
</glyph>
<glyph name="uueMatra-deva" format="1">
  <advance width="0"/>
  <unicode hex="0957"/>
  <outline>
    <contour>
      <point x="-369" y="-187"/>
      <point x="-323" y="-204"/>
      <point x="-274" y="-201" type="curve"/>
      <point x="-219" y="-200"/>
      <point x="-172" y="-184"/>
      <point x="-135" y="-152" type="curve" smooth="yes"/>
      <point x="-93" y="-115"/>
      <point x="-68" y="-81"/>
      <point x="-61" y="-50" type="curve"/>
      <point x="-134" y="-50" type="line"/>
      <point x="-145" y="-69"/>
      <point x="-161" y="-87"/>
      <point x="-183" y="-106" type="curve" smooth="yes"/>
      <point x="-210" y="-128"/>
      <point x="-241" y="-139"/>
      <point x="-274" y="-139" type="curve" smooth="yes"/>
      <point x="-313" y="-138"/>
      <point x="-343" y="-128"/>
      <point x="-364" y="-108" type="curve" smooth="yes"/>
      <point x="-397" y="-79"/>
      <point x="-414" y="-59"/>
      <point x="-414" y="-50" type="curve"/>
      <point x="-487" y="-50" type="line"/>
      <point x="-480" y="-82"/>
      <point x="-455" y="-116"/>
      <point x="-412" y="-152" type="curve" smooth="yes"/>
    </contour>
    <contour>
      <point x="-369" y="-314"/>
      <point x="-324" y="-330"/>
      <point x="-274" y="-332" type="curve"/>
      <point x="-219" y="-331"/>
      <point x="-172" y="-314"/>
      <point x="-135" y="-282" type="curve" smooth="yes"/>
      <point x="-92" y="-245"/>
      <point x="-68" y="-212"/>
      <point x="-61" y="-183" type="curve"/>
      <point x="-134" y="-183" type="line"/>
      <point x="-145" y="-202"/>
      <point x="-161" y="-221"/>
      <point x="-183" y="-238" type="curve"/>
      <point x="-210" y="-261"/>
      <point x="-241" y="-272"/>
      <point x="-274" y="-272" type="curve"/>
      <point x="-296" y="-271"/>
      <point x="-325" y="-262"/>
      <point x="-362" y="-244" type="curve" smooth="yes"/>
      <point x="-387" y="-231"/>
      <point x="-405" y="-211"/>
      <point x="-414" y="-186" type="curve"/>
      <point x="-484" y="-186" type="line"/>
      <point x="-477" y="-221"/>
      <point x="-452" y="-254"/>
      <point x="-410" y="-285" type="curve" smooth="yes"/>
    </contour>
    <contour>
      <point x="-265" y="0" type="move" name="_mark0"/>
    </contour>
  </outline>
</glyph>
<glyph name="ghha-deva" format="1">
  <advance width="517"/>
  <unicode hex="095A"/>
  <outline>
    <contour>
      <point x="185" y="40" type="line"/>
      <point x="132" y="93" type="line"/>
      <point x="79" y="40" type="line"/>
      <point x="132" y="-13" type="line"/>
    </contour>
    <contour>
      <point x="119" y="606" type="line"/>
      <point x="119" y="453" type="line" smooth="yes"/>
      <point x="119" y="434"/>
      <point x="107" y="419"/>
      <point x="92" y="419" type="curve" smooth="yes"/>
      <point x="45" y="419" type="line" smooth="yes"/>
      <point x="32" y="419"/>
      <point x="19" y="406"/>
      <point x="19" y="393" type="curve" smooth="yes"/>
      <point x="19" y="377"/>
      <point x="38" y="352"/>
      <point x="76" y="317" type="curve" smooth="yes"/>
      <point x="114" y="283"/>
      <point x="141" y="266"/>
      <point x="158" y="266" type="curve" smooth="yes"/>
      <point x="173" y="266"/>
      <point x="185" y="288"/>
      <point x="185" y="313" type="curve" smooth="yes"/>
      <point x="185" y="606" type="line"/>
      <point x="352" y="606" type="line"/>
      <point x="352" y="0" type="line"/>
      <point x="418" y="0" type="line"/>
      <point x="418" y="606" type="line"/>
      <point x="531" y="606" type="line"/>
      <point x="531" y="666" type="line"/>
      <point x="-13" y="666" type="line"/>
      <point x="-13" y="606" type="line"/>
    </contour>
    <contour>
      <point x="392" y="666" type="move" name="mark0"/>
    </contour>
  </outline>
</glyph>
<glyph name="dddha-deva" format="1">
  <advance width="632"/>
  <unicode hex="095C"/>
  <outline>
    <contour>
      <point x="445" y="-87" type="line"/>
      <point x="385" y="-40" type="line"/>
      <point x="325" y="-87" type="line"/>
      <point x="385" y="-133" type="line"/>
    </contour>
    <contour>
      <point x="465" y="606" type="line"/>
      <point x="465" y="499" type="line"/>
      <point x="278" y="499" type="line" smooth="yes"/>
      <point x="230" y="499"/>
      <point x="192" y="461"/>
      <point x="192" y="413" type="curve" smooth="yes"/>
      <point x="192" y="378"/>
      <point x="212" y="340"/>
      <point x="253" y="297" type="curve" smooth="yes"/>
      <point x="294" y="254"/>
      <point x="331" y="233"/>
      <point x="365" y="233" type="curve" smooth="yes"/>
      <point x="379" y="233"/>
      <point x="400" y="237"/>
      <point x="428" y="246" type="curve" smooth="yes"/>
      <point x="456" y="255"/>
      <point x="477" y="260"/>
      <point x="491" y="260" type="curve" smooth="yes"/>
      <point x="506" y="260"/>
      <point x="518" y="241"/>
      <point x="518" y="220" type="curve" smooth="yes"/>
      <point x="518" y="181"/>
      <point x="505" y="148"/>
      <point x="478" y="121" type="curve" smooth="yes"/>
      <point x="452" y="94"/>
      <point x="421" y="80"/>
      <point x="385" y="80" type="curve" smooth="yes"/>
      <point x="327" y="80"/>
      <point x="270" y="104"/>
      <point x="213" y="152" type="curve" smooth="yes"/>
      <point x="157" y="200"/>
      <point x="110" y="265"/>
      <point x="72" y="346" type="curve"/>
      <point x="19" y="313" type="line"/>
      <point x="62" y="222"/>
      <point x="116" y="149"/>
      <point x="182" y="94" type="curve" smooth="yes"/>
      <point x="248" y="40"/>
      <point x="316" y="13"/>
      <point x="385" y="13" type="curve" smooth="yes"/>
      <point x="440" y="13"/>
      <point x="487" y="33"/>
      <point x="526" y="73" type="curve" smooth="yes"/>
      <point x="565" y="114"/>
      <point x="585" y="163"/>
      <point x="585" y="220" type="curve" smooth="yes"/>
      <point x="585" y="279"/>
      <point x="543" y="326"/>
      <point x="491" y="326" type="curve" smooth="yes"/>
      <point x="477" y="326"/>
      <point x="456" y="322"/>
      <point x="428" y="313" type="curve" smooth="yes"/>
      <point x="400" y="304"/>
      <point x="379" y="300"/>
      <point x="365" y="300" type="curve" smooth="yes"/>
      <point x="347" y="300"/>
      <point x="325" y="314"/>
      <point x="298" y="342" type="curve" smooth="yes"/>
      <point x="271" y="371"/>
      <point x="258" y="394"/>
      <point x="258" y="413" type="curve" smooth="yes"/>
      <point x="258" y="424"/>
      <point x="267" y="433"/>
      <point x="278" y="433" type="curve" smooth="yes"/>
      <point x="531" y="433" type="line"/>
      <point x="531" y="606" type="line"/>
      <point x="646" y="606" type="line"/>
      <point x="646" y="666" type="line"/>
      <point x="-13" y="666" type="line"/>
      <point x="-13" y="606" type="line"/>
    </contour>
    <contour>
      <point x="502" y="664" type="move" name="mark0"/>
    </contour>
  </outline>
</glyph>
<glyph name="fa-deva" format="1">
  <advance width="765"/>
  <unicode hex="095E"/>
  <outline>
    <contour>
      <point x="225" y="43" type="line"/>
      <point x="172" y="93" type="line"/>
      <point x="119" y="43" type="line"/>
      <point x="172" y="-7" type="line"/>
    </contour>
    <contour>
      <point x="345" y="353" type="line"/>
      <point x="309" y="304"/>
      <point x="260" y="273"/>
      <point x="212" y="273" type="curve" smooth="yes"/>
      <point x="164" y="273"/>
      <point x="125" y="318"/>
      <point x="125" y="373" type="curve" smooth="yes"/>
      <point x="125" y="606" type="line"/>
      <point x="345" y="606" type="line"/>
    </contour>
    <contour>
      <point x="59" y="606" type="line"/>
      <point x="59" y="373" type="line" smooth="yes"/>
      <point x="59" y="328"/>
      <point x="74" y="290"/>
      <point x="103" y="259" type="curve" smooth="yes"/>
      <point x="133" y="228"/>
      <point x="169" y="213"/>
      <point x="212" y="213" type="curve" smooth="yes"/>
      <point x="257" y="213"/>
      <point x="306" y="234"/>
      <point x="345" y="273" type="curve"/>
      <point x="345" y="0" type="line"/>
      <point x="411" y="0" type="line"/>
      <point x="411" y="346" type="line"/>
      <point x="451" y="393"/>
      <point x="498" y="419"/>
      <point x="545" y="419" type="curve" smooth="yes"/>
      <point x="574" y="419"/>
      <point x="599" y="407"/>
      <point x="620" y="384" type="curve" smooth="yes"/>
      <point x="641" y="361"/>
      <point x="651" y="333"/>
      <point x="651" y="300" type="curve" smooth="yes"/>
      <point x="651" y="227"/>
      <point x="623" y="158"/>
      <point x="571" y="107" type="curve"/>
      <point x="631" y="73" type="line"/>
      <point x="686" y="141"/>
      <point x="718" y="220"/>
      <point x="718" y="300" type="curve" smooth="yes"/>
      <point x="718" y="351"/>
      <point x="701" y="395"/>
      <point x="667" y="431" type="curve"/>
      <point x="634" y="468"/>
      <point x="593" y="486"/>
      <point x="545" y="486" type="curve" smooth="yes"/>
      <point x="497" y="486"/>
      <point x="448" y="466"/>
      <point x="411" y="429" type="curve"/>
      <point x="411" y="606" type="line"/>
      <point x="779" y="606" type="line"/>
      <point x="779" y="666" type="line"/>
      <point x="-13" y="666" type="line"/>
      <point x="-13" y="606" type="line"/>
    </contour>
    <contour>
      <point x="379" y="664" type="move" name="mark0"/>
    </contour>
  </outline>
</glyph>
<glyph name="llVocalic-deva" format="1">
  <advance width="708"/>
  <unicode hex="0961"/>
  <outline>
    <contour>
      <point x="277" y="53" type="line"/>
      <point x="176" y="96"/>
      <point x="111" y="179"/>
      <point x="111" y="266" type="curve" smooth="yes"/>
      <point x="111" y="301"/>
      <point x="121" y="330"/>
      <point x="140" y="355" type="curve" smooth="yes"/>
      <point x="159" y="380"/>
      <point x="183" y="393"/>
      <point x="210" y="393" type="curve" smooth="yes"/>
      <point x="251" y="393"/>
      <point x="292" y="367"/>
      <point x="317" y="326" type="curve"/>
      <point x="302" y="297"/>
      <point x="291" y="265"/>
      <point x="284" y="233" type="curve"/>
      <point x="350" y="213" type="line"/>
      <point x="375" y="318"/>
      <point x="430" y="393"/>
      <point x="483" y="393" type="curve" smooth="yes"/>
      <point x="514" y="393"/>
      <point x="541" y="379"/>
      <point x="563" y="350" type="curve"/>
      <point x="586" y="322"/>
      <point x="597" y="287"/>
      <point x="597" y="246" type="curve" smooth="yes"/>
      <point x="597" y="207"/>
      <point x="586" y="174"/>
      <point x="563" y="145" type="curve" smooth="yes"/>
      <point x="540" y="117"/>
      <point x="512" y="102"/>
      <point x="478" y="99" type="curve" smooth="yes"/>
      <point x="418" y="94"/>
      <point x="370" y="49"/>
      <point x="370" y="-7" type="curve" smooth="yes"/>
      <point x="370" y="-44"/>
      <point x="394" y="-78"/>
      <point x="430" y="-87" type="curve"/>
      <point x="394" y="-99"/>
      <point x="370" y="-131"/>
      <point x="370" y="-166" type="curve" smooth="yes"/>
      <point x="370" y="-197"/>
      <point x="384" y="-224"/>
      <point x="411" y="-246" type="curve" smooth="yes"/>
      <point x="439" y="-269"/>
      <point x="472" y="-280"/>
      <point x="510" y="-280" type="curve" smooth="yes"/>
      <point x="567" y="-280"/>
      <point x="620" y="-264"/>
      <point x="663" y="-233" type="curve"/>
      <point x="637" y="-180" type="line"/>
      <point x="600" y="-207"/>
      <point x="554" y="-220"/>
      <point x="510" y="-220" type="curve" smooth="yes"/>
      <point x="469" y="-220"/>
      <point x="437" y="-193"/>
      <point x="437" y="-164" type="curve" smooth="yes"/>
      <point x="437" y="-135"/>
      <point x="469" y="-113"/>
      <point x="510" y="-113" type="curve" smooth="yes"/>
      <point x="557" y="-113" type="line"/>
      <point x="557" y="-60" type="line"/>
      <point x="510" y="-60" type="line" smooth="yes"/>
      <point x="469" y="-60"/>
      <point x="437" y="-36"/>
      <point x="437" y="-7" type="curve" smooth="yes"/>
      <point x="437" y="12"/>
      <point x="456" y="28"/>
      <point x="483" y="33" type="curve" smooth="yes"/>
      <point x="536" y="42"/>
      <point x="579" y="67"/>
      <point x="612" y="107" type="curve" smooth="yes"/>
      <point x="646" y="148"/>
      <point x="663" y="194"/>
      <point x="663" y="246" type="curve" smooth="yes"/>
      <point x="663" y="297"/>
      <point x="650" y="342"/>
      <point x="624" y="381" type="curve"/>
      <point x="599" y="421"/>
      <point x="565" y="447"/>
      <point x="523" y="459" type="curve"/>
      <point x="523" y="606" type="line"/>
      <point x="722" y="606" type="line"/>
      <point x="722" y="666" type="line"/>
      <point x="-13" y="666" type="line"/>
      <point x="-13" y="606" type="line"/>
      <point x="457" y="606" type="line"/>
      <point x="457" y="459" type="line"/>
      <point x="416" y="451"/>
      <point x="377" y="421"/>
      <point x="350" y="380" type="curve"/>
      <point x="315" y="429"/>
      <point x="263" y="459"/>
      <point x="210" y="459" type="curve" smooth="yes"/>
      <point x="164" y="459"/>
      <point x="125" y="440"/>
      <point x="92" y="402" type="curve" smooth="yes"/>
      <point x="60" y="365"/>
      <point x="44" y="319"/>
      <point x="44" y="266" type="curve" smooth="yes"/>
      <point x="44" y="212"/>
      <point x="63" y="161"/>
      <point x="100" y="112" type="curve"/>
      <point x="138" y="64"/>
      <point x="188" y="27"/>
      <point x="250" y="0" type="curve"/>
    </contour>
  </outline>
</glyph>
<glyph name="three-deva" format="1">
  <advance width="664"/>
  <unicode hex="0969"/>
  <outline>
    <contour>
      <point x="449" y="-100" type="line"/>
      <point x="422" y="-88"/>
      <point x="385" y="-42"/>
      <point x="342" y="33" type="curve"/>
      <point x="396" y="43"/>
      <point x="441" y="66"/>
      <point x="476" y="102" type="curve" smooth="yes"/>
      <point x="511" y="139"/>
      <point x="529" y="180"/>
      <point x="529" y="226" type="curve" smooth="yes"/>
      <point x="529" y="293"/>
      <point x="484" y="354"/>
      <point x="415" y="386" type="curve"/>
      <point x="468" y="417"/>
      <point x="502" y="471"/>
      <point x="502" y="526" type="curve" smooth="yes"/>
      <point x="502" y="572"/>
      <point x="484" y="611"/>
      <point x="447" y="643" type="curve"/>
      <point x="411" y="676"/>
      <point x="367" y="692"/>
      <point x="316" y="692" type="curve" smooth="yes"/>
      <point x="249" y="692"/>
      <point x="187" y="669"/>
      <point x="136" y="626" type="curve"/>
      <point x="169" y="579" type="line"/>
      <point x="222" y="610"/>
      <point x="270" y="626"/>
      <point x="309" y="626" type="curve" smooth="yes"/>
      <point x="344" y="626"/>
      <point x="373" y="616"/>
      <point x="398" y="596" type="curve" smooth="yes"/>
      <point x="423" y="577"/>
      <point x="435" y="553"/>
      <point x="435" y="526" type="curve" smooth="yes"/>
      <point x="435" y="497"/>
      <point x="423" y="471"/>
      <point x="400" y="450" type="curve" smooth="yes"/>
      <point x="377" y="429"/>
      <point x="349" y="419"/>
      <point x="316" y="419" type="curve" smooth="yes"/>
      <point x="196" y="419" type="line"/>
      <point x="229" y="360" type="line"/>
      <point x="302" y="360" type="line" smooth="yes"/>
      <point x="347" y="360"/>
      <point x="384" y="347"/>
      <point x="415" y="320" type="curve" smooth="yes"/>
      <point x="446" y="294"/>
      <point x="462" y="263"/>
      <point x="462" y="226" type="curve" smooth="yes"/>
      <point x="462" y="159"/>
      <point x="405" y="100"/>
      <point x="322" y="87" type="curve"/>
      <point x="293" y="140"/>
      <point x="251" y="173"/>
      <point x="216" y="173" type="curve" smooth="yes"/>
      <point x="181" y="173"/>
      <point x="156" y="149"/>
      <point x="156" y="120" type="curve" smooth="yes"/>
      <point x="156" y="93"/>
      <point x="168" y="69"/>
      <point x="191" y="49" type="curve" smooth="yes"/>
      <point x="214" y="30"/>
      <point x="243" y="20"/>
      <point x="276" y="20" type="curve"/>
      <point x="316" y="-67"/>
      <point x="359" y="-125"/>
      <point x="395" y="-146" type="curve"/>
    </contour>
  </outline>
</glyph>
<glyph name="six-deva" format="1">
  <advance width="665"/>
  <unicode hex="096C"/>
  <outline>
    <contour>
      <point x="546" y="-120" type="line"/>
      <point x="507" y="-51"/>
      <point x="481" y="1"/>
      <point x="473" y="33" type="curve"/>
      <point x="510" y="60"/>
      <point x="533" y="98"/>
      <point x="533" y="133" type="curve" smooth="yes"/>
      <point x="533" y="166"/>
      <point x="511" y="193"/>
      <point x="486" y="193" type="curve" smooth="yes"/>
      <point x="438" y="193"/>
      <point x="399" y="144"/>
      <point x="399" y="87" type="curve"/>
      <point x="352" y="87"/>
      <point x="311" y="100"/>
      <point x="277" y="126" type="curve" smooth="yes"/>
      <point x="243" y="152"/>
      <point x="226" y="183"/>
      <point x="226" y="220" type="curve" smooth="yes"/>
      <point x="226" y="255"/>
      <point x="240" y="284"/>
      <point x="267" y="309" type="curve" smooth="yes"/>
      <point x="295" y="334"/>
      <point x="328" y="346"/>
      <point x="366" y="346" type="curve" smooth="yes"/>
      <point x="439" y="346" type="line"/>
      <point x="413" y="399" type="line"/>
      <point x="306" y="399" type="line" smooth="yes"/>
      <point x="273" y="399"/>
      <point x="245" y="411"/>
      <point x="221" y="434" type="curve"/>
      <point x="198" y="458"/>
      <point x="186" y="486"/>
      <point x="186" y="519" type="curve" smooth="yes"/>
      <point x="186" y="567"/>
      <point x="234" y="606"/>
      <point x="293" y="606" type="curve" smooth="yes"/>
      <point x="332" y="606"/>
      <point x="378" y="598"/>
      <point x="426" y="579" type="curve"/>
      <point x="446" y="639" type="line"/>
      <point x="409" y="660"/>
      <point x="356" y="672"/>
      <point x="293" y="672" type="curve" smooth="yes"/>
      <point x="245" y="672"/>
      <point x="204" y="657"/>
      <point x="170" y="627" type="curve" smooth="yes"/>
      <point x="137" y="598"/>
      <point x="120" y="562"/>
      <point x="120" y="519" type="curve" smooth="yes"/>
      <point x="120" y="439"/>
      <point x="174" y="372"/>
      <point x="246" y="360" type="curve"/>
      <point x="193" y="329"/>
      <point x="160" y="275"/>
      <point x="160" y="220" type="curve" smooth="yes"/>
      <point x="160" y="167"/>
      <point x="184" y="121"/>
      <point x="232" y="83" type="curve" smooth="yes"/>
      <point x="280" y="46"/>
      <point x="338" y="27"/>
      <point x="406" y="27" type="curve"/>
      <point x="442" y="-69"/>
      <point x="472" y="-134"/>
      <point x="499" y="-166" type="curve"/>
    </contour>
  </outline>
</glyph>
<glyph name="seven-deva" format="1">
  <advance width="665"/>
  <unicode hex="096D"/>
  <outline>
    <contour>
      <point x="456" y="240"/>
      <point x="420" y="257"/>
      <point x="390" y="290" type="curve"/>
      <point x="361" y="324"/>
      <point x="346" y="365"/>
      <point x="346" y="413" type="curve" smooth="yes"/>
      <point x="346" y="449"/>
      <point x="354" y="480"/>
      <point x="369" y="506" type="curve" smooth="yes"/>
      <point x="385" y="533"/>
      <point x="404" y="546"/>
      <point x="426" y="546" type="curve" smooth="yes"/>
      <point x="450" y="546"/>
      <point x="470" y="528"/>
      <point x="487" y="493" type="curve" smooth="yes"/>
      <point x="504" y="458"/>
      <point x="513" y="416"/>
      <point x="513" y="366" type="curve" smooth="yes"/>
      <point x="513" y="333"/>
      <point x="508" y="289"/>
      <point x="499" y="240" type="curve"/>
    </contour>
    <contour>
      <point x="413" y="0"/>
      <point x="471" y="33"/>
      <point x="514" y="100" type="curve" smooth="yes"/>
      <point x="557" y="167"/>
      <point x="579" y="255"/>
      <point x="579" y="366" type="curve" smooth="yes"/>
      <point x="579" y="433"/>
      <point x="564" y="489"/>
      <point x="534" y="536" type="curve" smooth="yes"/>
      <point x="505" y="583"/>
      <point x="469" y="606"/>
      <point x="426" y="606" type="curve" smooth="yes"/>
      <point x="388" y="606"/>
      <point x="355" y="587"/>
      <point x="327" y="549" type="curve" smooth="yes"/>
      <point x="300" y="512"/>
      <point x="286" y="466"/>
      <point x="286" y="413" type="curve" smooth="yes"/>
      <point x="286" y="352"/>
      <point x="305" y="300"/>
      <point x="344" y="257" type="curve" smooth="yes"/>
      <point x="383" y="214"/>
      <point x="431" y="193"/>
      <point x="486" y="193" type="curve"/>
      <point x="458" y="113"/>
      <point x="399" y="60"/>
      <point x="340" y="60" type="curve" smooth="yes"/>
      <point x="288" y="60"/>
      <point x="244" y="89"/>
      <point x="207" y="146" type="curve" smooth="yes"/>
      <point x="171" y="203"/>
      <point x="153" y="272"/>
      <point x="153" y="353" type="curve" smooth="yes"/>
      <point x="153" y="465"/>
      <point x="161" y="572"/>
      <point x="180" y="672" type="curve"/>
      <point x="107" y="633" type="line"/>
      <point x="91" y="446" type="line" smooth="yes"/>
      <point x="88" y="406"/>
      <point x="87" y="375"/>
      <point x="87" y="353" type="curve" smooth="yes"/>
      <point x="87" y="255"/>
      <point x="111" y="172"/>
      <point x="160" y="103" type="curve" smooth="yes"/>
      <point x="209" y="34"/>
      <point x="269" y="0"/>
      <point x="340" y="0" type="curve" smooth="yes"/>
    </contour>
  </outline>
</glyph>
<glyph name="nine-deva" format="1">
  <advance width="664"/>
  <unicode hex="096F"/>
  <outline>
    <contour>
      <point x="269" y="406"/>
      <point x="241" y="418"/>
      <point x="217" y="443" type="curve" smooth="yes"/>
      <point x="194" y="468"/>
      <point x="182" y="498"/>
      <point x="182" y="533" type="curve" smooth="yes"/>
      <point x="182" y="566"/>
      <point x="194" y="594"/>
      <point x="217" y="617" type="curve" smooth="yes"/>
      <point x="241" y="640"/>
      <point x="269" y="652"/>
      <point x="302" y="652" type="curve" smooth="yes"/>
      <point x="331" y="652"/>
      <point x="356" y="640"/>
      <point x="377" y="617" type="curve" smooth="yes"/>
      <point x="398" y="594"/>
      <point x="409" y="566"/>
      <point x="409" y="533" type="curve" smooth="yes"/>
      <point x="409" y="498"/>
      <point x="398" y="468"/>
      <point x="377" y="443" type="curve" smooth="yes"/>
      <point x="356" y="418"/>
      <point x="331" y="406"/>
      <point x="302" y="406" type="curve" smooth="yes"/>
    </contour>
    <contour>
      <point x="415" y="-93" type="line"/>
      <point x="452" y="-90"/>
      <point x="484" y="-78"/>
      <point x="510" y="-57" type="curve" smooth="yes"/>
      <point x="536" y="-37"/>
      <point x="549" y="-14"/>
      <point x="549" y="13" type="curve" smooth="yes"/>
      <point x="549" y="38"/>
      <point x="536" y="69"/>
      <point x="509" y="100" type="curve" smooth="yes"/>
      <point x="282" y="353" type="line"/>
      <point x="311" y="348"/>
      <point x="322" y="346"/>
      <point x="329" y="346" type="curve" smooth="yes"/>
      <point x="372" y="346"/>
      <point x="408" y="364"/>
      <point x="437" y="400" type="curve" smooth="yes"/>
      <point x="467" y="437"/>
      <point x="482" y="481"/>
      <point x="482" y="533" type="curve" smooth="yes"/>
      <point x="482" y="586"/>
      <point x="464" y="632"/>
      <point x="429" y="669" type="curve" smooth="yes"/>
      <point x="394" y="707"/>
      <point x="352" y="726"/>
      <point x="302" y="726" type="curve" smooth="yes"/>
      <point x="251" y="726"/>
      <point x="207" y="708"/>
      <point x="170" y="673" type="curve" smooth="yes"/>
      <point x="134" y="638"/>
      <point x="116" y="596"/>
      <point x="116" y="546" type="curve" smooth="yes"/>
      <point x="116" y="470"/>
      <point x="156" y="386"/>
      <point x="229" y="313" type="curve"/>
      <point x="435" y="87" type="line"/>
      <point x="467" y="47"/>
      <point x="482" y="28"/>
      <point x="482" y="13" type="curve" smooth="yes"/>
      <point x="482" y="-11"/>
      <point x="443" y="-33"/>
      <point x="395" y="-33" type="curve"/>
    </contour>
  </outline>
</glyph>
<glyph name="abbreviation-deva" format="1">
  <advance width="545"/>
  <unicode hex="0970"/>
  <outline>
    <contour>
      <point x="214" y="381"/>
      <point x="164" y="432"/>
      <point x="164" y="496" type="curve" smooth="yes"/>
      <point x="164" y="560"/>
      <point x="214" y="610"/>
      <point x="274" y="610" type="curve" smooth="yes"/>
      <point x="335" y="610"/>
      <point x="385" y="560"/>
      <point x="385" y="496" type="curve" smooth="yes"/>
      <point x="385" y="464"/>
      <point x="374" y="437"/>
      <point x="352" y="414" type="curve" smooth="yes"/>
      <point x="331" y="392"/>
      <point x="305" y="381"/>
      <point x="274" y="381" type="curve" smooth="yes"/>
    </contour>
    <contour>
      <point x="100" y="449"/>
      <point x="117" y="408"/>
      <point x="150" y="375" type="curve" smooth="yes"/>
      <point x="184" y="342"/>
      <point x="225" y="325"/>
      <point x="273" y="325" type="curve" smooth="yes"/>
      <point x="321" y="325"/>
      <point x="362" y="342"/>
      <point x="395" y="375" type="curve" smooth="yes"/>
      <point x="429" y="408"/>
      <point x="446" y="449"/>
      <point x="446" y="496" type="curve" smooth="yes"/>
      <point x="446" y="543"/>
      <point x="429" y="583"/>
      <point x="395" y="616" type="curve" smooth="yes"/>
      <point x="362" y="649"/>
      <point x="321" y="666"/>
      <point x="273" y="666" type="curve" smooth="yes"/>
      <point x="225" y="666"/>
      <point x="184" y="649"/>
      <point x="150" y="616" type="curve" smooth="yes"/>
      <point x="117" y="583"/>
      <point x="100" y="543"/>
      <point x="100" y="496" type="curve" smooth="yes"/>
    </contour>
  </outline>
</glyph>
<glyph name="jja-deva" format="1">
  <advance width="728"/>
  <unicode hex="097C"/>
  <outline>
    <contour>
      <point x="350" y="80"/>
      <point x="384" y="95"/>
      <point x="412" y="124" type="curve" smooth="yes"/>
      <point x="441" y="154"/>
      <point x="455" y="190"/>
      <point x="455" y="233" type="curve" smooth="yes"/>
      <point x="455" y="292"/>
      <point x="438" y="350"/>
      <point x="402" y="399" type="curve"/>
      <point x="562" y="399" type="line"/>
      <point x="562" y="0" type="line"/>
      <point x="629" y="0" type="line"/>
      <point x="629" y="606" type="line"/>
      <point x="742" y="606" type="line"/>
      <point x="742" y="666" type="line"/>
      <point x="-13" y="666" type="line"/>
      <point x="-13" y="606" type="line"/>
      <point x="562" y="606" type="line"/>
      <point x="562" y="466" type="line"/>
      <point x="276" y="466" type="line"/>
      <point x="348" y="393"/>
      <point x="389" y="309"/>
      <point x="389" y="233" type="curve" smooth="yes"/>
      <point x="389" y="185"/>
      <point x="353" y="146"/>
      <point x="309" y="146" type="curve" smooth="yes"/>
      <point x="275" y="146"/>
      <point x="237" y="174"/>
      <point x="196" y="231" type="curve" smooth="yes"/>
      <point x="155" y="288"/>
      <point x="117" y="364"/>
      <point x="83" y="459" type="curve"/>
      <point x="23" y="433" type="line"/>
      <point x="62" y="326"/>
      <point x="107" y="241"/>
      <point x="159" y="176" type="curve" smooth="yes"/>
      <point x="211" y="112"/>
      <point x="261" y="80"/>
      <point x="309" y="80" type="curve" smooth="yes"/>
    </contour>
    <contour>
      <point x="627" y="-61" type="line"/>
      <point x="627" y="-1" type="line"/>
      <point x="-2" y="-1" type="line"/>
      <point x="-2" y="-61" type="line"/>
    </contour>
    <contour>
      <point x="596" y="666" type="move" name="mark0"/>
    </contour>
  </outline>
</glyph>
<glyph name="daggerdbl" format="1">
  <advance width="531"/>
  <unicode hex="2021"/>
  <outline>
    <contour>
      <point x="229" y="760"/>
      <point x="217" y="719"/>
      <point x="220" y="687" type="curve" smooth="yes"/>
      <point x="227" y="613"/>
      <point x="245" y="515"/>
      <point x="256" y="455" type="curve"/>
      <point x="207" y="465"/>
      <point x="157" y="475"/>
      <point x="108" y="481" type="curve" smooth="yes"/>
      <point x="76" y="486"/>
      <point x="35" y="484"/>
      <point x="35" y="447" type="curve" smooth="yes"/>
      <point x="35" y="410"/>
      <point x="76" y="408"/>
      <point x="108" y="412" type="curve" smooth="yes"/>
      <point x="157" y="418"/>
      <point x="207" y="428"/>
      <point x="255" y="438" type="curve"/>
      <point x="240" y="363"/>
      <point x="227" y="282"/>
      <point x="212" y="245" type="curve"/>
      <point x="227" y="208"/>
      <point x="240" y="125"/>
      <point x="255" y="50" type="curve"/>
      <point x="207" y="60"/>
      <point x="157" y="70"/>
      <point x="108" y="77" type="curve" smooth="yes"/>
      <point x="76" y="81"/>
      <point x="35" y="79"/>
      <point x="35" y="42" type="curve" smooth="yes"/>
      <point x="35" y="5"/>
      <point x="76" y="2"/>
      <point x="108" y="7" type="curve" smooth="yes"/>
      <point x="157" y="13"/>
      <point x="207" y="23"/>
      <point x="256" y="34" type="curve"/>
      <point x="245" y="-26"/>
      <point x="227" y="-124"/>
      <point x="220" y="-198" type="curve" smooth="yes"/>
      <point x="217" y="-229"/>
      <point x="228" y="-271"/>
      <point x="264" y="-271" type="curve" smooth="yes"/>
      <point x="301" y="-271"/>
      <point x="313" y="-229"/>
      <point x="311" y="-198" type="curve" smooth="yes"/>
      <point x="303" y="-124"/>
      <point x="286" y="-26"/>
      <point x="274" y="34" type="curve"/>
      <point x="324" y="23"/>
      <point x="374" y="13"/>
      <point x="422" y="7" type="curve" smooth="yes"/>
      <point x="455" y="2"/>
      <point x="496" y="5"/>
      <point x="496" y="42" type="curve" smooth="yes"/>
      <point x="496" y="79"/>
      <point x="455" y="81"/>
      <point x="422" y="77" type="curve" smooth="yes"/>
      <point x="374" y="70"/>
      <point x="324" y="60"/>
      <point x="275" y="50" type="curve"/>
      <point x="291" y="126"/>
      <point x="304" y="208"/>
      <point x="318" y="245" type="curve"/>
      <point x="304" y="282"/>
      <point x="291" y="362"/>
      <point x="275" y="438" type="curve"/>
      <point x="324" y="428"/>
      <point x="374" y="418"/>
      <point x="422" y="412" type="curve" smooth="yes"/>
      <point x="455" y="408"/>
      <point x="496" y="410"/>
      <point x="496" y="447" type="curve" smooth="yes"/>
      <point x="496" y="484"/>
      <point x="455" y="486"/>
      <point x="422" y="481" type="curve" smooth="yes"/>
      <point x="374" y="475"/>
      <point x="324" y="465"/>
      <point x="274" y="455" type="curve"/>
      <point x="286" y="515"/>
      <point x="303" y="613"/>
      <point x="311" y="687" type="curve" smooth="yes"/>
      <point x="313" y="719"/>
      <point x="303" y="760"/>
      <point x="267" y="760" type="curve" smooth="yes"/>
    </contour>
  </outline>
</glyph>
<glyph name="bullet" format="1">
  <advance width="401"/>
  <unicode hex="2022"/>
  <outline>
    <contour>
      <point x="117" y="522"/>
      <point x="50" y="457"/>
      <point x="50" y="374" type="curve" smooth="yes"/>
      <point x="50" y="291"/>
      <point x="117" y="226"/>
      <point x="200" y="226" type="curve" smooth="yes"/>
      <point x="283" y="226"/>
      <point x="351" y="291"/>
      <point x="351" y="374" type="curve" smooth="yes"/>
      <point x="351" y="457"/>
      <point x="283" y="522"/>
      <point x="200" y="522" type="curve" smooth="yes"/>
    </contour>
  </outline>
</glyph>
<glyph name="perthousand" format="1">
  <advance width="1291"/>
  <unicode hex="2030"/>
  <outline>
    <contour>
      <point x="975" y="365"/>
      <point x="892" y="272"/>
      <point x="892" y="169" type="curve" smooth="yes"/>
      <point x="892" y="77"/>
      <point x="953" y="-18"/>
      <point x="1077" y="-16" type="curve" smooth="yes"/>
      <point x="1194" y="-14"/>
      <point x="1258" y="85"/>
      <point x="1258" y="178" type="curve" smooth="yes"/>
      <point x="1258" y="274"/>
      <point x="1196" y="365"/>
      <point x="1077" y="365" type="curve" smooth="yes"/>
    </contour>
    <contour>
      <point x="1153" y="327"/>
      <point x="1172" y="226"/>
      <point x="1172" y="162" type="curve" smooth="yes"/>
      <point x="1172" y="111"/>
      <point x="1153" y="20"/>
      <point x="1078" y="20" type="curve" smooth="yes"/>
      <point x="1003" y="20"/>
      <point x="979" y="118"/>
      <point x="979" y="185" type="curve" smooth="yes"/>
      <point x="979" y="247"/>
      <point x="1001" y="325"/>
      <point x="1074" y="326" type="curve" smooth="yes"/>
    </contour>
    <component base="percent" xOffset="3"/>
  </outline>
</glyph>
<glyph name="uni2074" format="1">
  <advance width="403"/>
  <unicode hex="2074"/>
  <outline>
    <contour>
      <point x="240" y="716" type="line"/>
      <point x="41" y="440" type="line"/>
      <point x="41" y="410" type="line"/>
      <point x="210" y="410" type="line"/>
      <point x="210" y="400" type="line" smooth="yes"/>
      <point x="210" y="362"/>
      <point x="202" y="335"/>
      <point x="161" y="334" type="curve"/>
      <point x="161" y="305" type="line"/>
      <point x="308" y="305" type="line"/>
      <point x="308" y="339" type="line"/>
      <point x="267" y="337" type="line"/>
      <point x="267" y="410" type="line"/>
      <point x="323" y="410" type="line"/>
      <point x="323" y="446" type="line"/>
      <point x="267" y="447" type="line"/>
      <point x="266" y="716" type="line"/>
    </contour>
    <contour>
      <point x="210" y="448" type="line"/>
      <point x="88" y="450" type="line"/>
      <point x="209" y="619" type="line"/>
      <point x="210" y="619" type="line"/>
    </contour>
  </outline>
</glyph>
<glyph name="uni2126" format="1">
  <advance width="781"/>
  <unicode hex="2126"/>
  <outline>
    <contour>
      <point x="165" y="716"/>
      <point x="57" y="537"/>
      <point x="57" y="379" type="curve" smooth="yes"/>
      <point x="57" y="229"/>
      <point x="167" y="103"/>
      <point x="300" y="66" type="curve"/>
      <point x="300" y="65" type="line"/>
      <point x="229" y="65" type="line" smooth="yes"/>
      <point x="145" y="65"/>
      <point x="106" y="77"/>
      <point x="106" y="135" type="curve"/>
      <point x="76" y="135" type="line"/>
      <point x="83" y="0" type="line"/>
      <point x="344" y="0" type="line"/>
      <point x="344" y="75" type="line"/>
      <point x="257" y="86"/>
      <point x="155" y="190"/>
      <point x="155" y="377" type="curve" smooth="yes"/>
      <point x="155" y="525"/>
      <point x="237" y="676"/>
      <point x="389" y="676" type="curve" smooth="yes"/>
      <point x="545" y="676"/>
      <point x="624" y="514"/>
      <point x="620" y="350" type="curve" smooth="yes"/>
      <point x="617" y="203"/>
      <point x="528" y="97"/>
      <point x="444" y="75" type="curve"/>
      <point x="444" y="0" type="line"/>
      <point x="709" y="0" type="line"/>
      <point x="715" y="135" type="line"/>
      <point x="686" y="135" type="line"/>
      <point x="686" y="77"/>
      <point x="647" y="65"/>
      <point x="563" y="65" type="curve" smooth="yes"/>
      <point x="479" y="65" type="line"/>
      <point x="479" y="66" type="line"/>
      <point x="594" y="109"/>
      <point x="721" y="229"/>
      <point x="721" y="379" type="curve" smooth="yes"/>
      <point x="721" y="536"/>
      <point x="625" y="716"/>
      <point x="390" y="716" type="curve" smooth="yes"/>
    </contour>
  </outline>
</glyph>
<glyph name="uni2206" format="1">
  <advance width="698"/>
  <unicode hex="2206"/>
  <outline>
    <contour>
      <point x="301" y="716" type="line"/>
      <point x="28" y="0" type="line"/>
      <point x="671" y="0" type="line"/>
      <point x="381" y="716" type="line"/>
    </contour>
    <contour>
      <point x="560" y="58" type="line"/>
      <point x="110" y="61" type="line"/>
      <point x="329" y="651" type="line"/>
    </contour>
  </outline>
</glyph>
<glyph name="fi" format="1">
  <advance width="623"/>
  <unicode hex="FB01"/>
  <outline>
    <contour>
      <point x="179" y="760"/>
      <point x="107" y="657"/>
      <point x="107" y="502" type="curve" smooth="yes"/>
      <point x="107" y="500" type="line"/>
      <point x="71" y="500"/>
      <point x="42" y="500"/>
      <point x="25" y="500" type="curve"/>
      <point x="25" y="455" type="line"/>
      <point x="107" y="457" type="line"/>
      <point x="109" y="152" type="line" smooth="yes"/>
      <point x="109" y="80"/>
      <point x="111" y="30"/>
      <point x="50" y="30" type="curve"/>
      <point x="50" y="0" type="line"/>
      <point x="253" y="0" type="line"/>
      <point x="253" y="41" type="line"/>
      <point x="190" y="38" type="line"/>
      <point x="194" y="61"/>
      <point x="194" y="78"/>
      <point x="194" y="105" type="curve" smooth="yes"/>
      <point x="193" y="459" type="line"/>
      <point x="447" y="465" type="line"/>
      <point x="444" y="438"/>
      <point x="443" y="421"/>
      <point x="443" y="400" type="curve" smooth="yes"/>
      <point x="443" y="152" type="line" smooth="yes"/>
      <point x="443" y="80"/>
      <point x="445" y="30"/>
      <point x="384" y="30" type="curve"/>
      <point x="384" y="0" type="line"/>
      <point x="588" y="0" type="line"/>
      <point x="588" y="41" type="line"/>
      <point x="525" y="38" type="line"/>
      <point x="529" y="61"/>
      <point x="529" y="79"/>
      <point x="529" y="106" type="curve" smooth="yes"/>
      <point x="529" y="510" type="line"/>
      <point x="500" y="510" type="line"/>
      <point x="495" y="506"/>
      <point x="467" y="500"/>
      <point x="422" y="500" type="curve" smooth="yes"/>
      <point x="193" y="500" type="line"/>
      <point x="193" y="537" type="line" smooth="yes"/>
      <point x="193" y="662"/>
      <point x="257" y="722"/>
      <point x="348" y="722" type="curve" smooth="yes"/>
      <point x="390" y="722"/>
      <point x="423" y="711"/>
      <point x="446" y="694" type="curve"/>
      <point x="442" y="686"/>
      <point x="441" y="676"/>
      <point x="441" y="667" type="curve" smooth="yes"/>
      <point x="441" y="651"/>
      <point x="453" y="624"/>
      <point x="486" y="625" type="curve" smooth="yes"/>
      <point x="514" y="625"/>
      <point x="529" y="646"/>
      <point x="529" y="672" type="curve" smooth="yes"/>
      <point x="529" y="724"/>
      <point x="458" y="760"/>
      <point x="368" y="760" type="curve" smooth="yes"/>
    </contour>
  </outline>
</glyph>
<glyph name="Caron" format="1">
  <advance width="470"/>
  <outline>
    <contour>
      <point x="235" y="867" type="line"/>
      <point x="67" y="955" type="line"/>
      <point x="45" y="921" type="line"/>
      <point x="229" y="780" type="line"/>
      <point x="231" y="780" type="line"/>
      <point x="425" y="925" type="line"/>
      <point x="405" y="957" type="line"/>
    </contour>
  </outline>
</glyph>
<glyph name="Ring" format="1">
  <advance width="320"/>
  <outline>
    <contour>
      <point x="102" y="936"/>
      <point x="44" y="889"/>
      <point x="46" y="820" type="curve" smooth="yes"/>
      <point x="49" y="747"/>
      <point x="105" y="715"/>
      <point x="161" y="715" type="curve" smooth="yes"/>
      <point x="217" y="715"/>
      <point x="276" y="760"/>
      <point x="274" y="832" type="curve" smooth="yes"/>
      <point x="271" y="904"/>
      <point x="213" y="936"/>
      <point x="159" y="936" type="curve" smooth="yes"/>
    </contour>
    <contour>
      <point x="190" y="904"/>
      <point x="216" y="875"/>
      <point x="216" y="818" type="curve" smooth="yes"/>
      <point x="216" y="777"/>
      <point x="192" y="751"/>
      <point x="165" y="750" type="curve" smooth="yes"/>
      <point x="128" y="749"/>
      <point x="104" y="781"/>
      <point x="104" y="830" type="curve" smooth="yes"/>
      <point x="104" y="872"/>
      <point x="125" y="900"/>
      <point x="156" y="902" type="curve" smooth="yes"/>
    </contour>
  </outline>
</glyph>
<glyph name="caroncomb.alt" format="1">
  <advance width="246"/>
  <outline>
    <contour>
      <point x="158" y="716"/>
      <point x="159" y="658"/>
      <point x="115" y="574" type="curve"/>
      <point x="141" y="554" type="line"/>
      <point x="183" y="596"/>
      <point x="218" y="649"/>
      <point x="223" y="702" type="curve" smooth="yes"/>
      <point x="226" y="726"/>
      <point x="223" y="739"/>
      <point x="212" y="762" type="curve"/>
      <point x="143" y="775" type="line"/>
    </contour>
    <contour>
      <point x="72" y="500" type="move" name="_top"/>
    </contour>
  </outline>
</glyph>
<glyph name="foundry" format="1">
  <advance width="1226"/>
  <outline>
    <contour>
      <point x="1017" y="417"/>
      <point x="997" y="313"/>
      <point x="997" y="214" type="curve" smooth="yes"/>
      <point x="997" y="168"/>
      <point x="1001" y="123"/>
      <point x="1010" y="82" type="curve" smooth="yes"/>
      <point x="1012" y="72" type="line"/>
      <point x="1006" y="61"/>
      <point x="991" y="29"/>
      <point x="977" y="33" type="curve"/>
      <point x="967" y="66"/>
      <point x="964" y="109"/>
      <point x="964" y="153" type="curve" smooth="yes"/>
      <point x="964" y="202"/>
      <point x="968" y="251"/>
      <point x="974" y="290" type="curve"/>
      <point x="963" y="300"/>
      <point x="928" y="315"/>
      <point x="913" y="311" type="curve"/>
      <point x="906" y="307"/>
      <point x="899" y="268"/>
      <point x="896" y="261" type="curve"/>
      <point x="882" y="267"/>
      <point x="863" y="271"/>
      <point x="847" y="271" type="curve"/>
      <point x="815" y="236"/>
      <point x="804" y="189"/>
      <point x="801" y="139" type="curve"/>
      <point x="801" y="101" type="line"/>
      <point x="792" y="79"/>
      <point x="777" y="46"/>
      <point x="750" y="35" type="curve"/>
      <point x="736" y="43"/>
      <point x="732" y="63"/>
      <point x="727" y="83" type="curve"/>
      <point x="765" y="94"/>
      <point x="786" y="147"/>
      <point x="786" y="195" type="curve" smooth="yes"/>
      <point x="786" y="237"/>
      <point x="771" y="263"/>
      <point x="745" y="275" type="curve" smooth="yes"/>
      <point x="744" y="276"/>
      <point x="744" y="276"/>
      <point x="744" y="276" type="curve"/>
      <point x="739" y="286"/>
      <point x="732" y="299"/>
      <point x="726" y="312" type="curve"/>
      <point x="792" y="322"/>
      <point x="813" y="408"/>
      <point x="834" y="450" type="curve"/>
      <point x="844" y="462" type="line"/>
      <point x="844" y="462"/>
      <point x="845" y="462"/>
      <point x="844" y="462" type="curve"/>
      <point x="833" y="462" type="line"/>
      <point x="835" y="476" type="line"/>
      <point x="835" y="476"/>
      <point x="837" y="477"/>
      <point x="834" y="477" type="curve"/>
      <point x="822" y="472" type="line"/>
      <point x="817" y="476"/>
      <point x="811" y="477"/>
      <point x="804" y="477" type="curve" smooth="yes"/>
      <point x="786" y="477"/>
      <point x="769" y="465"/>
      <point x="763" y="444" type="curve"/>
      <point x="752" y="434"/>
      <point x="686" y="423"/>
      <point x="619" y="411" type="curve"/>
      <point x="605" y="411"/>
      <point x="523" y="418"/>
      <point x="522" y="420" type="curve"/>
      <point x="518" y="420"/>
      <point x="517" y="416"/>
      <point x="520" y="413" type="curve"/>
      <point x="538" y="396"/>
      <point x="584" y="398"/>
      <point x="597" y="386" type="curve"/>
      <point x="625" y="353"/>
      <point x="659" y="320"/>
      <point x="696" y="312" type="curve"/>
      <point x="699" y="303"/>
      <point x="703" y="292"/>
      <point x="708" y="284" type="curve"/>
      <point x="704" y="285"/>
      <point x="699" y="285"/>
      <point x="695" y="285" type="curve" smooth="yes"/>
      <point x="691" y="285"/>
      <point x="688" y="285"/>
      <point x="683" y="284" type="curve"/>
      <point x="666" y="256"/>
      <point x="655" y="195"/>
      <point x="654" y="144" type="curve"/>
      <point x="653" y="139"/>
      <point x="653" y="135"/>
      <point x="653" y="130" type="curve" smooth="yes"/>
      <point x="653" y="67"/>
      <point x="680" y="12"/>
      <point x="748" y="12" type="curve"/>
      <point x="778" y="16"/>
      <point x="799" y="37"/>
      <point x="811" y="56" type="curve"/>
      <point x="817" y="31"/>
      <point x="837" y="12"/>
      <point x="874" y="12" type="curve"/>
      <point x="892" y="15"/>
      <point x="916" y="29"/>
      <point x="920" y="49" type="curve"/>
      <point x="929" y="29"/>
      <point x="950" y="5"/>
      <point x="977" y="5" type="curve" smooth="yes"/>
      <point x="1000" y="5"/>
      <point x="1016" y="27"/>
      <point x="1021" y="48" type="curve"/>
      <point x="1038" y="21"/>
      <point x="1063" y="5"/>
      <point x="1098" y="5" type="curve" smooth="yes"/>
      <point x="1167" y="5"/>
      <point x="1184" y="83"/>
      <point x="1184" y="137" type="curve" smooth="yes"/>
      <point x="1184" y="143"/>
      <point x="1184" y="147"/>
      <point x="1184" y="152" type="curve"/>
      <point x="1181" y="152"/>
      <point x="1179" y="153"/>
      <point x="1174" y="151" type="curve"/>
      <point x="1159" y="91"/>
      <point x="1137" y="54"/>
      <point x="1109" y="33" type="curve"/>
      <point x="1089" y="62"/>
      <point x="1079" y="101"/>
      <point x="1079" y="149" type="curve"/>
      <point x="1131" y="174"/>
      <point x="1159" y="271"/>
      <point x="1159" y="351" type="curve" smooth="yes"/>
      <point x="1159" y="436"/>
      <point x="1137" y="471"/>
      <point x="1055" y="485" type="curve"/>
    </contour>
    <contour>
      <point x="68" y="433"/>
      <point x="41" y="317"/>
      <point x="42" y="203" type="curve" smooth="yes"/>
      <point x="44" y="104"/>
      <point x="85" y="1"/>
      <point x="191" y="1" type="curve" smooth="yes"/>
      <point x="239" y="1"/>
      <point x="262" y="35"/>
      <point x="271" y="63" type="curve"/>
      <point x="287" y="33"/>
      <point x="309" y="12"/>
      <point x="343" y="12" type="curve" smooth="yes"/>
      <point x="352" y="12"/>
      <point x="360" y="20"/>
      <point x="364" y="25" type="curve"/>
      <point x="353" y="-67"/>
      <point x="352" y="-129"/>
      <point x="293" y="-167" type="curve"/>
      <point x="291" y="-158"/>
      <point x="290" y="-146"/>
      <point x="290" y="-135" type="curve" smooth="yes"/>
      <point x="290" y="-115"/>
      <point x="292" y="-95"/>
      <point x="294" y="-78" type="curve"/>
      <point x="276" y="-60"/>
      <point x="248" y="-52"/>
      <point x="225" y="-52" type="curve"/>
      <point x="220" y="-71"/>
      <point x="215" y="-92"/>
      <point x="215" y="-115" type="curve" smooth="yes"/>
      <point x="215" y="-165"/>
      <point x="228" y="-193"/>
      <point x="276" y="-193" type="curve" smooth="yes"/>
      <point x="389" y="-193"/>
      <point x="436" y="-32"/>
      <point x="436" y="147" type="curve" smooth="yes"/>
      <point x="436" y="191"/>
      <point x="434" y="235"/>
      <point x="429" y="278" type="curve"/>
      <point x="410" y="297"/>
      <point x="371" y="314"/>
      <point x="347" y="311" type="curve"/>
      <point x="352" y="274"/>
      <point x="364" y="211"/>
      <point x="364" y="146" type="curve" smooth="yes"/>
      <point x="364" y="119"/>
      <point x="362" y="91"/>
      <point x="356" y="65" type="curve"/>
      <point x="354" y="60"/>
      <point x="352" y="49"/>
      <point x="341" y="46" type="curve"/>
      <point x="327" y="90"/>
      <point x="323" y="139"/>
      <point x="323" y="189" type="curve" smooth="yes"/>
      <point x="323" y="212"/>
      <point x="324" y="235"/>
      <point x="325" y="258" type="curve"/>
      <point x="307" y="275"/>
      <point x="273" y="281"/>
      <point x="259" y="284" type="curve"/>
      <point x="250" y="268"/>
      <point x="246" y="245"/>
      <point x="246" y="209" type="curve" smooth="yes"/>
      <point x="246" y="172"/>
      <point x="249" y="134"/>
      <point x="258" y="102" type="curve"/>
      <point x="248" y="79"/>
      <point x="225" y="39"/>
      <point x="189" y="27" type="curve"/>
      <point x="148" y="56"/>
      <point x="133" y="131"/>
      <point x="133" y="209" type="curve" smooth="yes"/>
      <point x="133" y="300"/>
      <point x="154" y="393"/>
      <point x="179" y="417" type="curve"/>
      <point x="189" y="404"/>
      <point x="201" y="361"/>
      <point x="201" y="325" type="curve" smooth="yes"/>
      <point x="201" y="319"/>
      <point x="200" y="312"/>
      <point x="200" y="306" type="curve"/>
      <point x="198" y="302"/>
      <point x="198" y="295"/>
      <point x="207" y="304" type="curve"/>
      <point x="232" y="326"/>
      <point x="250" y="354"/>
      <point x="250" y="388" type="curve" smooth="yes"/>
      <point x="250" y="476"/>
      <point x="187" y="491"/>
      <point x="145" y="500" type="curve"/>
    </contour>
    <contour>
      <point x="575" y="290"/>
      <point x="570" y="268"/>
      <point x="570" y="256" type="curve"/>
      <point x="563" y="237"/>
      <point x="553" y="216"/>
      <point x="537" y="186" type="curve"/>
      <point x="534" y="223"/>
      <point x="525" y="250"/>
      <point x="514" y="268" type="curve"/>
      <point x="507" y="277"/>
      <point x="497" y="283"/>
      <point x="484" y="285" type="curve" smooth="yes"/>
      <point x="473" y="288"/>
      <point x="458" y="290"/>
      <point x="439" y="291" type="curve"/>
      <point x="470" y="217"/>
      <point x="473" y="92"/>
      <point x="479" y="9" type="curve"/>
      <point x="482" y="8"/>
      <point x="485" y="8"/>
      <point x="488" y="8" type="curve" smooth="yes"/>
      <point x="514" y="8"/>
      <point x="529" y="28"/>
      <point x="537" y="54" type="curve"/>
      <point x="544" y="74"/>
      <point x="544" y="113"/>
      <point x="544" y="136" type="curve"/>
      <point x="550" y="162"/>
      <point x="570" y="181"/>
      <point x="577" y="201" type="curve"/>
      <point x="581" y="170"/>
      <point x="596" y="154"/>
      <point x="621" y="154" type="curve" smooth="yes"/>
      <point x="628" y="154"/>
      <point x="635" y="156"/>
      <point x="644" y="158" type="curve"/>
      <point x="642" y="171"/>
      <point x="640" y="187"/>
      <point x="640" y="203" type="curve" smooth="yes"/>
      <point x="640" y="227"/>
      <point x="643" y="251"/>
      <point x="646" y="271" type="curve"/>
      <point x="637" y="290"/>
      <point x="610" y="297"/>
      <point x="581" y="300" type="curve"/>
    </contour>
    <contour>
      <point x="749" y="227"/>
      <point x="756" y="206"/>
      <point x="756" y="186" type="curve" smooth="yes"/>
      <point x="756" y="151"/>
      <point x="747" y="110"/>
      <point x="725" y="107" type="curve"/>
      <point x="725" y="152"/>
      <point x="732" y="198"/>
      <point x="744" y="236" type="curve"/>
    </contour>
    <contour>
      <point x="722" y="299"/>
      <point x="728" y="288"/>
      <point x="734" y="279" type="curve"/>
      <point x="728" y="281"/>
      <point x="722" y="282"/>
      <point x="714" y="283" type="curve"/>
      <point x="706" y="311" type="line"/>
      <point x="717" y="311" type="line"/>
    </contour>
    <contour>
      <point x="894" y="221"/>
      <point x="894" y="209"/>
      <point x="894" y="194" type="curve" smooth="yes"/>
      <point x="894" y="164"/>
      <point x="896" y="123"/>
      <point x="904" y="87" type="curve"/>
      <point x="903" y="68"/>
      <point x="884" y="48"/>
      <point x="873" y="39" type="curve"/>
      <point x="867" y="55"/>
      <point x="865" y="75"/>
      <point x="865" y="96" type="curve" smooth="yes"/>
      <point x="865" y="150"/>
      <point x="879" y="210"/>
      <point x="895" y="229" type="curve"/>
    </contour>
    <contour>
      <point x="1112" y="382"/>
      <point x="1113" y="365"/>
      <point x="1113" y="345" type="curve" smooth="yes"/>
      <point x="1113" y="289"/>
      <point x="1102" y="217"/>
      <point x="1078" y="183" type="curve"/>
      <point x="1082" y="256"/>
      <point x="1096" y="339"/>
      <point x="1109" y="396" type="curve"/>
    </contour>
  </outline>
</glyph>
<glyph name="ka-cy.ss01" format="1">
  <advance width="537"/>
  <outline>
    <contour>
      <point x="36" y="500" type="line"/>
      <point x="36" y="459" type="line"/>
      <point x="99" y="462" type="line"/>
      <point x="95" y="439"/>
      <point x="95" y="421"/>
      <point x="95" y="394" type="curve" smooth="yes"/>
      <point x="94" y="152" type="line" smooth="yes"/>
      <point x="93" y="80"/>
      <point x="95" y="30"/>
      <point x="34" y="30" type="curve"/>
      <point x="34" y="0" type="line"/>
      <point x="238" y="0" type="line"/>
      <point x="238" y="41" type="line"/>
      <point x="175" y="38" type="line"/>
      <point x="179" y="61"/>
      <point x="179" y="79"/>
      <point x="179" y="106" type="curve" smooth="yes"/>
      <point x="181" y="348" type="line" smooth="yes"/>
      <point x="181" y="420"/>
      <point x="179" y="470"/>
      <point x="240" y="470" type="curve"/>
      <point x="240" y="500" type="line"/>
    </contour>
    <contour>
      <point x="179" y="282" type="line"/>
      <point x="179" y="243" type="line"/>
      <point x="237" y="245" type="line"/>
      <point x="258" y="237"/>
      <point x="270" y="220"/>
      <point x="280" y="199" type="curve" smooth="yes"/>
      <point x="299" y="160"/>
      <point x="313" y="130"/>
      <point x="331" y="90" type="curve" smooth="yes"/>
      <point x="359" y="28"/>
      <point x="393" y="0"/>
      <point x="430" y="0" type="curve" smooth="yes"/>
      <point x="521" y="0" type="line"/>
      <point x="521" y="30" type="line"/>
      <point x="475" y="30"/>
      <point x="434" y="70"/>
      <point x="411" y="119" type="curve" smooth="yes"/>
      <point x="397" y="149"/>
      <point x="370" y="197"/>
      <point x="356" y="227" type="curve" smooth="yes"/>
      <point x="341" y="260"/>
      <point x="303" y="268"/>
      <point x="234" y="268" type="curve"/>
      <point x="234" y="282" type="line"/>
    </contour>
    <contour>
      <point x="373" y="516"/>
      <point x="339" y="467"/>
      <point x="310" y="357" type="curve" smooth="yes"/>
      <point x="291" y="289"/>
      <point x="269" y="282"/>
      <point x="209" y="282" type="curve"/>
      <point x="209" y="259" type="line"/>
      <point x="250" y="259" type="line" smooth="yes"/>
      <point x="299" y="259"/>
      <point x="332" y="286"/>
      <point x="347" y="340" type="curve" smooth="yes"/>
      <point x="369" y="419"/>
      <point x="374" y="436"/>
      <point x="397" y="457" type="curve"/>
      <point x="397" y="421"/>
      <point x="418" y="405"/>
      <point x="446" y="405" type="curve" smooth="yes"/>
      <point x="480" y="405"/>
      <point x="498" y="428"/>
      <point x="498" y="458" type="curve" smooth="yes"/>
      <point x="498" y="492"/>
      <point x="474" y="516"/>
      <point x="433" y="516" type="curve" smooth="yes"/>
    </contour>
  </outline>
</glyph>
